<svg version="1.2" xmlns="http://www.w3.org/2000/svg" viewBox="0 0 85 82" width="85" height="82"><style>.a{fill:#ffc300}.b{fill:#e8a600}</style><path fill-rule="evenodd" class="a" d="m42.4 76.4c-20.4 0-36.9-16.5-36.9-37 0-20.4 16.5-36.9 36.9-36.9 20.5 0 37 16.5 37 36.9 0 20.5-16.5 37-37 37z"/><path class="b" d="m19 31.6l2 0.7v13.7l-0.1 0.1-1.9 0.7z"/><path class="b" d="m50.1 16l-0.8 1.9-0.1 0.1h-13.6l-0.1-0.1-0.7-1.9z"/><path class="b" d="m53.7 17.5l10.7 10.8-1.9 0.8-9.6-9.7h-0.1z"/><path class="b" d="m64.5 50.1l-10.8 10.8-0.8-1.9 9.6-9.6 0.2-0.1z"/><path class="b" d="m61.2 29.8l-1.4 0.6-0.2-0.1-8-7.9c0-0.1 0-0.2 0-0.3 0.1-0.4 0.5-0.9 0.6-1.4l9 9.1z"/><path class="b" d="m48.8 19.3l-0.7 1.6h-11.4l-0.6-1.6z"/><path class="b" d="m33.1 20.6c0 0.3 0.7 1.3 0.6 1.5l-8 8-0.2 0.1-1.4-0.7z"/><path class="b" d="m62.2 45.5l-1.5-0.5-0.1-11.4c0-0.1 0.1-0.1 0.1-0.2 0.4-0.2 1.1-0.3 1.5-0.5z"/><path class="b" d="m47.6 22.3l-0.6 1.6h-9.1l-0.7-1.6z"/><path class="b" d="m27 30.8l7.3-7.4 0.7 1.6v0.1l-6.4 6.4c0 0-0.1 0-0.1 0-0.5-0.1-1-0.6-1.5-0.7z"/><path class="b" d="m34.3 55l-7.3-7.3c0-0.1 1.3-0.7 1.5-0.7 0-0.1 0.1-0.1 0.1 0l6.4 6.3c0 0.2-0.7 1.4-0.7 1.7z"/><path class="b" d="m25.3 34l1.6 0.6v9.1q0 0.1-0.1 0.1c-0.3 0.3-1.1 0.4-1.5 0.6z"/><path class="b" d="m28.1 54.9l4.3 4.3-0.8 1.9-4.8-4.8z"/><path class="b" d="m22.7 49.5l4.3 4.2c0 0.1-1.2 1.3-1.4 1.4l-4.8-4.7z"/><path class="b" d="m65.5 38.4h-1.9l-0.1-0.1v-5.9l2-0.8z"/><path class="b" d="m41.6 60.5v1.9h-6.8l0.8-1.9z"/><path class="b" d="m50.1 62.4h-6.9v-1.9h6.1z"/><path class="b" d="m65.5 40v6.8l-2-0.7v-6.1z"/><path class="b" d="m20.9 28.1l4.8-4.8 1.3 1.4-4.2 4.2c-0.1 0-0.1 0-0.2 0-0.5-0.1-1.2-0.6-1.7-0.8z"/><path class="b" d="m31.6 17.4l0.9 1.8-4.3 4.3-1.3-1.4z"/><path class="b" d="m41.7 25.4c4.7-0.2 8.6 1.5 11.7 5.2 3.4 4.1 3.9 10.6 1.4 15.3-4.3 7.9-15.1 9.8-21.7 3.8-9.2-8.4-3.9-23.7 8.6-24.3zm-0.8 0.1c-5.9 0.5-11 5.4-12.1 11.1-1.8 10 6.8 18.3 16.8 16.2 10-2.2 14.1-14.9 7.3-22.5-3.2-3.7-7.1-5.1-12-4.8z"/><path class="b" d="m23.9 33.5v4.8l-0.1 0.1h-1.4l-0.1-0.1v-5.4z"/><path class="b" d="m41.6 59.2h-5.5l0.6-1.7h4.8l0.1 0.1z"/><path class="b" d="m48.8 59.2h-5.6v-1.6l0.1-0.1h4.8z"/><path class="b" d="m23.9 40v4.9q-0.8 0.4-1.6 0.6v-5.5z"/><path class="b" d="m33 57.9l-3.9-3.9 1.1-1.1 3.5 3.4z"/><path class="b" d="m24 48.9l1.5-0.6h0.1l3.4 3.4-1 1.1z"/><path class="b" d="m59.7 48.1l1.6 0.6-4 3.9-1-1.1z"/><path class="b" d="m52.2 57.7c0-0.3-0.6-1.4-0.5-1.6l3.4-3.4 1.1 1.1-4 3.9z"/><path class="b" d="m59.3 34v4.3l-0.1 0.1h-1.5l-0.1-0.1v-3.7z"/><path class="b" d="m41.6 54.5v1.7l-0.1 0.1h-4c0 0-0.3-0.1-0.3-0.2l0.6-1.6h3.8z"/><path class="b" d="m47 54.5l0.6 1.6c0.1 0.1-0.3 0.2-0.3 0.2h-4l-0.1-0.1v-1.7h3.8z"/><path class="b" d="m59.3 40v4.4l-1.7-0.7v-3.7z"/><path class="b" d="m58.3 31c-0.3 0-1.5 0.7-1.7 0.7l-2.5-2.7 1.1-1.1 3.1 3.1z"/><path class="b" d="m51 23.6l3.1 3.1-1.2 1.2-0.1-0.1-2.5-2.5z"/><path class="b" d="m52.9 50.5l1.2 1.2-3.1 3.1-0.7-1.6z"/><path class="b" d="m58.4 47.4l-3.1 3.1c-0.1 0.1-1-1-1.2-1.1l2.6-2.6 1.7 0.6z"/><path class="b" d="m42.4 26c10.3 0 16.8 11.4 11.3 20.2-5.2 8.4-17.4 8.4-22.6 0-5.4-8.8 1-20.1 11.3-20.2zm1.4 0.3c5 1 6.9 7.2 3.4 10.9-2.8 3-6.1 1.2-8.9 3.6-5 4.1-1.8 11.9 4.8 11.6 11.8-0.6 16.9-15.6 7.7-23.2-1.8-1.5-4.4-2.7-6.8-2.9 0 0-0.2-0.1-0.2 0zm-1.6 5.1c-1.6 0.2-1.3 2.8 0.4 2.6 1.7-0.2 1.4-2.9-0.4-2.6z"/><path class="b" d="m42.1 44.6c1.5-0.3 2.2 1.4 1.1 2.3-0.9 0.6-2.1-0.1-2.1-1.2 0-0.5 0.5-1.1 1-1.1z"/><path class="b" d="m42.2 78.4c-21.6 0-39.2-17.6-39.2-39.2 0-21.6 17.6-39.2 39.2-39.2 21.6 0 39.2 17.6 39.2 39.2 0 21.6-17.6 39.2-39.2 39.2zm0-74.9c-19.7 0-35.7 16-35.7 35.7 0 19.7 16 35.7 35.7 35.7 19.7 0 35.7-16 35.7-35.7 0-19.7-16-35.7-35.7-35.7z"/><path class="b" d="m42.2 68.6c-16.2 0-29.4-13.2-29.4-29.4 0-16.2 13.2-29.4 29.4-29.4 16.2 0 29.4 13.2 29.4 29.4 0 16.2-13.2 29.4-29.4 29.4zm0-58.1c-15.8 0-28.7 12.9-28.7 28.7 0 15.8 12.9 28.7 28.7 28.7 15.8 0 28.7-12.9 28.7-28.7 0-15.8-12.9-28.7-28.7-28.7z"/><path class="b" d="m76.4 44.7q0 0 0 0l-3.7-0.6c-0.1 0-0.2-0.2-0.2-0.3 0.1-0.1 0.2-0.2 0.3-0.2l3.4 0.5q0-0.1 0.1-0.3l0.1-1.3 0.1-1.3q0-0.2 0-0.3l-1.9-0.1q0 0.1 0 0.3 0 0 0 0.1v0.4l0.6 0.1c0.2 0 0.3 0.1 0.3 0.2 0 0-0.1 0.2-0.1 0.4v0.2q0 0 0 0.1v0.2c0 0.1-0.2 0.2-0.3 0.2l-2.2-0.3q-0.1 0-0.1-0.1-0.1 0-0.1-0.1v-0.5l0.1-1.2 0.1-1.6c0-0.2 0.1-0.3 0.2-0.3 0.2 0 0.3 0.2 0.3 0.3l-0.1 1.6-0.1 1.5 1.7 0.1q0 0 0 0v-0.1q0-0.1 0-0.2h-0.6c-0.2 0-0.3-0.1-0.3-0.3l0.1-0.6q0-0.1 0-0.2 0-0.1 0-0.2v-0.2q0-0.1 0.1-0.2 0.1-0.1 0.2-0.1l2.4 0.1c0.1 0 0.2 0.2 0.2 0.3v0.1q0 0.2 0 0.4l-0.2 2.2v0.5c-0.1 0.3-0.1 0.5-0.1 0.5q0 0.1-0.1 0.2-0.1 0-0.2 0z"/><path class="b" d="m75.2 49.8q0 0 0 0l-3.6-1.1c-0.1 0-0.2-0.2-0.1-0.3 0-0.1 0.2-0.2 0.3-0.2l3.3 1.1 0.2-0.7q0.1-0.4 0.2-0.9l0.3-1.4q0.1-0.1 0.1-0.2l-1.9-0.3-0.2 0.7 0.7 0.2c0.1 0 0.2 0.2 0.2 0.3l-0.1 0.4q-0.1 0.1-0.1 0.3v0.1c-0.1 0.1-0.2 0.2-0.3 0.1l-2.2-0.5q-0.1 0-0.1-0.1-0.1-0.1-0.1-0.2l0.1-0.2q0-0.1 0-0.2l0.3-1.2q0.1-0.4 0.2-0.8 0-0.2 0-0.3l0.1-0.5c0-0.2 0.2-0.3 0.3-0.2 0.1 0 0.2 0.1 0.2 0.3l-0.1 0.5q0 0.1 0 0.3-0.1 0.4-0.2 0.8l-0.3 1.2q0 0.1 0 0.2l1.6 0.4q0.1-0.1 0.1-0.1v-0.2l-0.6-0.1c-0.2-0.1-0.3-0.2-0.2-0.3l0.2-1.1q0-0.1 0-0.2 0.1-0.1 0.2-0.1 0-0.1 0.1-0.1l2.4 0.5c0.1 0 0.2 0.2 0.2 0.3v0.2q0 0.1-0.1 0.2l-0.3 1.4q-0.1 0.5-0.2 0.9l-0.3 0.8q0 0.1 0 0.1v0.1q-0.1 0.1-0.3 0.1z"/><path class="b" d="m73.3 54.7q-0.1 0-0.1 0l-3.4-1.6c-0.1-0.1-0.1-0.2-0.1-0.3 0.1-0.2 0.2-0.2 0.4-0.2l3.1 1.6q0-0.1 0.1-0.3l0.5-1.2q0.2-0.4 0.4-0.8 0-0.2 0.1-0.4l0.1-0.3-1.8-0.6-0.3 0.7 0.6 0.2c0.2 0.1 0.2 0.2 0.2 0.4 0 0-0.1 0.1-0.2 0.3l-0.1 0.4c-0.1 0.1-0.2 0.2-0.4 0.1l-2-0.9q-0.1 0-0.1-0.1 0-0.1 0-0.2l0.1-0.1q0-0.1 0-0.1 0-0.1 0.1-0.2l0.5-1.2q0-0.1 0-0.2l0.1-0.3q0.1-0.2 0.2-0.5l0.2-0.5c0-0.1 0.1-0.2 0.3-0.1 0.1 0 0.2 0.2 0.1 0.3l-0.1 0.5q-0.1 0.2-0.2 0.5l-0.1 0.3q0 0.1-0.1 0.2l-0.4 1.1q-0.1 0.2-0.1 0.3l1.5 0.7 0.1-0.2q0 0 0-0.1l-0.6-0.3c-0.1 0-0.2-0.1-0.1-0.3l0.4-1.1c0.1-0.2 0.2-0.2 0.4-0.2l2.2 0.8c0.2 0.1 0.2 0.2 0.2 0.4q0 0-0.1 0.1l-0.1 0.4q-0.1 0.2-0.2 0.4-0.1 0.4-0.3 0.8l-0.5 1.2q-0.2 0.3-0.2 0.4l-0.1 0.1q-0.1 0.1-0.2 0.2z"/><path class="b" d="m70.6 59.3q-0.1 0-0.2 0l-3-2.2c-0.1 0-0.2-0.2-0.1-0.3 0.1-0.1 0.3-0.1 0.4-0.1l2.8 2 0.2-0.3 0.7-1q0.3-0.4 0.5-0.8 0.1-0.2 0.1-0.3l0.2-0.3-1.7-0.9-0.4 0.6 0.6 0.4c0.1 0.1 0.2 0.2 0.1 0.3q0 0-0.1 0.1l-0.3 0.6q-0.1 0.1-0.2 0.1-0.1 0-0.2 0l-1.8-1.2q-0.1-0.1-0.2-0.2 0-0.1 0.1-0.1l0.3-0.5q0.1-0.2 0.3-0.6 0.1-0.2 0.2-0.4 0.1 0 0.1-0.1 0.1-0.2 0.2-0.4l0.5-0.9c0.1-0.1 0.2-0.2 0.3-0.1 0.1 0.1 0.2 0.2 0.1 0.3l-0.4 1q-0.1 0.1-0.2 0.3-0.1 0.1-0.1 0.2-0.2 0.2-0.3 0.4-0.2 0.3-0.3 0.6l-0.2 0.2 1.5 0.9 0.1-0.2-0.5-0.4c-0.2 0-0.2-0.2-0.1-0.3l0.6-1.1c0.1-0.1 0.2-0.2 0.3-0.1l2.2 1.2q0.1 0 0.1 0.1 0 0.1 0 0.2l-0.3 0.5q-0.1 0.2-0.2 0.3-0.2 0.4-0.5 0.8l-0.7 1.1-0.3 0.5q-0.1 0.1-0.2 0.1z"/><path class="b" d="m67.2 63.4q-0.1 0-0.2-0.1l-2.7-2.5c-0.1-0.1-0.1-0.3 0-0.4 0.1-0.1 0.3-0.1 0.4 0l2.5 2.4 0.2-0.2q0.3-0.3 0.6-0.7 0.1-0.1 0.3-0.3l0.4-0.5q0.1-0.2 0.3-0.3l0.3-0.4-1.5-1.2-0.5 0.6 0.5 0.4q0.1 0.1 0.1 0.2 0 0.1-0.1 0.2l-0.5 0.6q-0.1 0.1-0.2 0.1-0.1 0-0.2-0.1l-1.6-1.4c-0.1-0.1-0.1-0.3 0-0.4l0.3-0.4q0 0 0.1-0.1 0.1-0.1 0.2-0.3l0.6-0.7q0.3-0.3 0.5-0.6l0.3-0.5c0.1-0.1 0.2-0.1 0.3 0 0.1 0.1 0.2 0.2 0.1 0.3l-0.3 0.4q-0.2 0.4-0.5 0.8l-0.6 0.6q-0.1 0.2-0.2 0.3-0.1 0.1-0.1 0.1l-0.2 0.3 1.3 1.1 0.2-0.2-0.5-0.5q-0.1 0-0.1-0.1 0-0.1 0-0.2l0.3-0.3 0.5-0.7c0.1-0.1 0.3-0.1 0.4 0l1.9 1.4q0.1 0.1 0.1 0.2 0 0.1-0.1 0.2l-0.5 0.6q-0.1 0.1-0.2 0.3l-0.5 0.5q-0.1 0.2-0.2 0.3-0.3 0.4-0.6 0.7l-0.4 0.4q-0.1 0.1-0.2 0.1z"/><path class="b" d="m63.2 66.9q0 0 0 0-0.1 0-0.2-0.1l-2.2-2.9c-0.1-0.1-0.1-0.3 0-0.3 0.1-0.1 0.3-0.1 0.4 0l2.1 2.7 0.7-0.5q0.2-0.1 0.3-0.3 0.1-0.1 0.2-0.2l0.6-0.4q0.2-0.2 0.4-0.4l0.2-0.2-1.3-1.4-0.3 0.2q-0.1 0.2-0.2 0.3 0 0-0.1 0l0.5 0.5q0 0.1 0 0.2 0 0.1-0.1 0.2l-0.6 0.5q0 0-0.1 0-0.1 0-0.2-0.1l-1.4-1.6c-0.1-0.1-0.1-0.3 0-0.4l0.6-0.5q0.3-0.2 0.6-0.6 0.2-0.1 0.4-0.3 0.2-0.3 0.4-0.5l0.4-0.3c0.1-0.1 0.2-0.1 0.3 0 0.1 0.1 0.1 0.2 0.1 0.3l-0.4 0.4q-0.2 0.2-0.5 0.5-0.2 0.1-0.3 0.3c-0.3 0.2-0.5 0.4-0.7 0.6l-0.4 0.3 1.1 1.3 0.2-0.2-0.4-0.5q-0.1 0-0.1-0.1 0-0.1 0.1-0.2l0.2-0.1q0-0.1 0.1-0.1 0.1-0.1 0.2-0.2l0.4-0.5q0.1 0 0.2 0 0.1 0 0.2 0.1l1.7 1.7q0 0.1 0 0.2 0 0.1 0 0.2l-0.5 0.4q-0.1 0.1-0.4 0.4l-0.5 0.4q-0.1 0.1-0.2 0.2-0.2 0.1-0.4 0.3l-0.9 0.7q-0.1 0-0.2 0.1z"/><path class="b" d="m58.8 69.8q0 0-0.1 0-0.1 0-0.1-0.1l-1.8-3.2c-0.1-0.2 0-0.3 0.1-0.4 0.1 0 0.3 0 0.3 0.1l1.7 3.1 1.1-0.7q0.1 0 0.2-0.1l1.2-0.8q0.1 0 0.2-0.1l-1.1-1.6q-0.1 0.1-0.3 0.2l-0.3 0.2 0.3 0.6q0.1 0.1 0.1 0.2-0.1 0.1-0.1 0.1l-0.7 0.5q-0.1 0-0.2 0-0.1 0-0.2-0.1l-1.1-1.9q-0.1-0.1 0-0.2 0-0.1 0.1-0.1 0 0 0.1-0.1l0.3-0.2q0.1-0.1 0.3-0.2 0.3-0.2 0.7-0.4l0.9-0.7q0.1-0.1 0.1-0.1l0.3-0.2c0.1-0.1 0.2-0.1 0.3 0 0.1 0.2 0.1 0.3 0 0.4l-0.3 0.2q0 0.1-0.1 0.1l-1 0.7q-0.3 0.2-0.6 0.4-0.2 0.1-0.3 0.2l-0.3 0.1 0.9 1.5 0.3-0.2-0.4-0.5c-0.1-0.1 0-0.3 0.1-0.4l0.5-0.3q0.2-0.1 0.3-0.2h0.1q0.1-0.2 0.1-0.2 0.1 0 0.2 0 0.1 0 0.2 0.1l1.4 2q0 0.1 0 0.2 0 0.1-0.1 0.1 0 0-0.1 0.1l-0.1 0.1q-0.1 0.1-0.3 0.2l-1.2 0.7q-0.1 0.1-0.2 0.2l-1.3 0.7q0 0-0.1 0z"/><path class="b" d="m54 72q-0.2 0-0.3-0.1l-1.2-3.5c-0.1-0.2 0-0.3 0.1-0.3 0.2-0.1 0.3 0 0.3 0.1l1.2 3.3 1.5-0.6 1.2-0.6q0.1 0 0.3-0.1l-0.9-1.7q-0.1 0.1-0.3 0.1l-0.4 0.2 0.3 0.6c0 0.1 0 0.3-0.1 0.3l-0.4 0.2q-0.1 0.1-0.3 0.1l-0.1 0.1c-0.1 0-0.2-0.1-0.3-0.2l-0.8-2q-0.1-0.1 0-0.2 0-0.1 0.1-0.1l0.1-0.1q0.2 0 0.4-0.1l1-0.5q0.3-0.2 0.7-0.3 0.1-0.1 0.3-0.2l0.3-0.2q0.1 0 0.1 0 0.1-0.1 0.2-0.1c0.1 0 0.2 0.1 0.2 0.3q0 0.1-0.1 0.2 0 0-0.1 0.1l-0.4 0.1q-0.1 0.1-0.3 0.2-0.3 0.2-0.7 0.3l-1 0.5q-0.2 0.1-0.3 0.1l0.7 1.6q0 0 0.1 0l0.1-0.1-0.2-0.6c-0.1-0.2 0-0.3 0.1-0.4l0.6-0.2q0.2-0.1 0.4-0.2l0.1-0.1q0.1 0 0.2 0 0.1 0 0.2 0.1l1 2.2c0.1 0.1 0.1 0.2 0 0.3q-0.1 0-0.1 0-0.2 0.2-0.5 0.3l-1.2 0.5-1.8 0.7q0 0 0 0z"/><path class="b" d="m48.9 73.4c-0.2 0-0.3 0-0.3-0.2l-0.7-3.6c0-0.1 0.1-0.3 0.2-0.3 0.1 0 0.3 0.1 0.3 0.2l0.7 3.4q0.1 0 0.3-0.1l1.9-0.4 0.9-0.3-0.6-1.8-0.8 0.2 0.2 0.6c0.1 0.2 0 0.3-0.2 0.3l-0.1 0.1q-0.1 0-0.3 0l-0.3 0.1c-0.2 0.1-0.3 0-0.3-0.1l-0.6-2.2q0-0.1 0.1-0.2 0-0.1 0.1-0.1h0.2q0 0 0.1 0 0.1-0.1 0.2-0.1c0.3-0.1 0.7-0.2 1.1-0.3l0.7-0.2 0.9-0.3c0.1-0.1 0.2 0 0.3 0.1 0 0.2 0 0.3-0.2 0.3l-1.2 0.5-0.4 0.1c-0.3 0.1-0.7 0.2-1 0.3q-0.2 0-0.3 0 0 0 0 0l0.4 1.7h0.1q0.1-0.1 0.2-0.1l-0.2-0.6c0-0.2 0-0.3 0.2-0.3l1.2-0.4c0.1 0 0.3 0.1 0.3 0.2l0.7 2.3q0 0.1 0 0.2 0 0.1-0.1 0.1l-2 0.6-1.1 0.2q-0.3 0.1-0.4 0.1h-0.2q0 0 0 0z"/><path class="b" d="m43.6 74c-0.1 0-0.3-0.1-0.3-0.2l-0.1-3.7c0-0.1 0.1-0.2 0.2-0.3 0.2 0 0.3 0.1 0.3 0.3l0.1 3.4q0.2 0 0.3 0l1.3-0.1q0.4 0 0.7 0l0.9-0.2-0.3-1.9-0.7 0.1v0.7c0 0.1 0 0.3-0.2 0.3h-0.1q-0.1 0-0.2 0h-0.5c-0.1 0.1-0.2 0-0.3-0.2l-0.1-2.2q0-0.1 0-0.2 0.1 0 0.2 0l0.5-0.1 1.1-0.1c0.4-0.1 0.7-0.1 1-0.2l0.6-0.1c0.2 0 0.3 0.1 0.3 0.2 0 0.2 0 0.3-0.2 0.3l-0.6 0.1c-0.3 0.1-0.7 0.1-1 0.2l-1.1 0.1h-0.3l0.1 1.7h0.2q0.1 0 0.1 0l-0.1-0.7c0-0.1 0.1-0.2 0.3-0.2l1.2-0.2c0.2 0 0.3 0.1 0.3 0.2l0.3 2.4q0.1 0.1 0 0.2-0.1 0.1-0.2 0.1l-1.1 0.2q-0.4 0-0.7 0l-1.3 0.1q-0.3 0-0.5 0l-0.1 0.1q0 0 0 0z"/><path class="b" d="m42 74.1q0 0 0 0l-1.3-0.1q-0.3 0-0.6 0l-1.3-0.1q-0.2 0-0.4 0h-0.1c-0.2-0.1-0.3-0.2-0.3-0.3l0.5-3.7c0-0.1 0.1-0.2 0.2-0.2 0.2 0 0.3 0.1 0.2 0.3l-0.3 3.4q0.1 0 0.3 0l1.3 0.1q0.3 0 0.5 0.1h1.1v-2h-0.8v0.7c0 0.1-0.2 0.2-0.3 0.2q0 0-0.1 0-0.1 0-0.3 0h-0.4c-0.1 0-0.2-0.1-0.2-0.3l0.1-2.2q0-0.1 0.1-0.1 0.1-0.1 0.2-0.1h0.5c0.3 0 0.7 0.1 1.1 0.1q0.1 0 0.2 0 0.2 0 0.4 0 0.3 0 0.6 0h0.5c0.1-0.1 0.2 0.1 0.2 0.2 0 0.1-0.1 0.2-0.2 0.2l-0.5 0.1q-0.3 0-0.6 0-0.2 0-0.4 0-0.1 0-0.2 0c-0.4 0-0.8-0.1-1.1-0.1h-0.3l-0.1 1.7h0.1q0.1 0 0.2 0v-0.6c0-0.2 0.1-0.3 0.3-0.3l1.2 0.1c0.2 0 0.3 0.1 0.3 0.2v2.4q0 0.1-0.1 0.2-0.1 0.1-0.2 0.1z"/><path class="b" d="m36.7 73.6q0 0.1 0 0l-1.5-0.2-1.6-0.4q-0.2 0-0.3-0.1-0.1 0-0.1 0h-0.2c-0.1-0.1-0.2-0.2-0.2-0.3l1-3.6c0-0.2 0.2-0.2 0.3-0.2 0.1 0 0.2 0.2 0.2 0.3l-0.9 3.3q0 0 0 0.1 0.1 0 0.3 0l1.6 0.4 1.2 0.2 0.3-1.9-0.7-0.1-0.2 0.6c0 0.2-0.1 0.3-0.3 0.2 0 0-0.2 0-0.4-0.1h-0.4c-0.1-0.1-0.2-0.2-0.1-0.3l0.4-2.2q0.1-0.1 0.1-0.1 0.1-0.1 0.2-0.1l0.5 0.1q0.3 0.1 0.7 0.2 0.2 0 0.4 0 0.2 0.1 0.3 0.1 0.2 0 0.3 0 0.3 0.1 0.6 0.1l0.5 0.1c0.1 0 0.2 0.1 0.2 0.2 0 0.2-0.2 0.3-0.3 0.3l-0.5-0.1q-0.2 0-0.5-0.1-0.2 0-0.4 0-0.1-0.1-0.2-0.1-0.3 0-0.5-0.1-0.4 0-0.7-0.1h-0.2l-0.4 1.6 0.1 0.1q0.1 0 0.2 0l0.1-0.7c0-0.1 0.2-0.2 0.3-0.2l1.2 0.3c0.2 0 0.3 0.1 0.2 0.2l-0.3 2.4q-0.1 0.1-0.1 0.2-0.1 0-0.2 0z"/><path class="b" d="m31.6 72.4q-0.1 0-0.1 0l-0.8-0.3c-0.3-0.1-0.6-0.2-1-0.3q-0.2-0.1-0.4-0.2-0.5-0.2-0.8-0.3l-0.5-0.2c-0.1-0.1-0.2-0.2-0.1-0.4l1.5-3.4c0-0.1 0.2-0.1 0.3-0.1 0.1 0.1 0.2 0.2 0.1 0.3l-1.4 3.2 0.3 0.1q0.3 0.2 0.7 0.3 0.3 0.1 0.5 0.2 0.5 0.2 1 0.4l0.5 0.2 0.6-1.9-0.7-0.2-0.3 0.6q0 0.1-0.1 0.1-0.1 0.1-0.2 0l-0.7-0.2q-0.1-0.1-0.2-0.2 0-0.1 0-0.2l0.8-2c0.1-0.1 0.2-0.2 0.3-0.2 0 0 0.2 0.1 0.5 0.2q0.1 0.1 0.3 0.1l1.4 0.5 1 0.3c0.1 0 0.2 0.2 0.1 0.3 0 0.1-0.2 0.2-0.3 0.2l-1.1-0.4-1.3-0.4q-0.2-0.1-0.3-0.1-0.1-0.1-0.2-0.1l-0.6 1.6 0.2 0.1 0.3-0.6c0-0.2 0.2-0.2 0.3-0.2l1.2 0.4c0.1 0.1 0.2 0.2 0.1 0.3l-0.7 2.3q0 0.1-0.1 0.2-0.1 0-0.1 0z"/><path class="b" d="m26.7 70.4q-0.1 0-0.2 0l-0.6-0.4q-0.2-0.1-0.4-0.2l-0.6-0.3q-0.2-0.1-0.3-0.2-0.5-0.3-0.8-0.5l-0.5-0.3q-0.1 0-0.1-0.1 0-0.1 0-0.2l2-3.1c0.1-0.2 0.2-0.2 0.4-0.1 0.1 0.1 0.1 0.2 0 0.3l-1.8 2.9 0.2 0.2q0.4 0.2 0.8 0.5 0.2 0.1 0.3 0.2l0.6 0.3q0.2 0.1 0.4 0.2l0.4 0.2 0.9-1.7-0.5-0.3q-0.1 0-0.2-0.1l-0.3 0.6q-0.1 0.1-0.2 0.1-0.1 0.1-0.1 0l-0.7-0.4q-0.1 0-0.2-0.1 0-0.1 0.1-0.2l1.1-1.9c0-0.1 0.2-0.2 0.3-0.1l0.5 0.2q0 0.1 0.1 0.1 0.2 0.1 0.3 0.2l0.6 0.3q0.1 0.1 0.3 0.1 0.4 0.2 0.7 0.4l0.4 0.2c0.2 0 0.2 0.2 0.2 0.3-0.1 0.1-0.2 0.2-0.4 0.1l-0.4-0.2q-0.4-0.1-0.8-0.3-0.1-0.1-0.3-0.2l-0.5-0.3q-0.2-0.1-0.3-0.1-0.1-0.1-0.2-0.1l-0.2-0.2-0.9 1.5 0.3 0.2 0.3-0.6q0.1-0.1 0.1-0.1 0.1-0.1 0.2 0l0.2 0.1q0.1 0 0.2 0.1l0.8 0.4c0.1 0 0.1 0.2 0.1 0.3l-1.1 2.2q-0.1 0.1-0.2 0.1 0 0-0.1 0z"/><path class="b" d="m22.1 67.7q-0.1 0-0.1-0.1l-0.5-0.3q-0.2-0.2-0.5-0.4l-0.5-0.4q-0.1-0.1-0.2-0.2-0.2-0.1-0.4-0.2l-0.9-0.8q0-0.1-0.1-0.2 0-0.1 0.1-0.2l2.5-2.7c0.1-0.1 0.2-0.2 0.3-0.1 0.1 0.1 0.1 0.3 0 0.4l-2.3 2.6 0.7 0.6q0.2 0.1 0.4 0.3 0.1 0 0.2 0.1l0.5 0.4q0.3 0.2 0.5 0.4l0.3 0.2 1.1-1.6-0.3-0.2q-0.2-0.1-0.3-0.2 0 0-0.1-0.1l-0.4 0.6q0 0.1-0.1 0.1-0.1 0-0.2-0.1l-0.6-0.5q-0.1 0-0.1-0.1 0-0.1 0-0.2l1.4-1.7c0.1-0.1 0.2-0.2 0.4-0.1l0.4 0.3q0 0.1 0.2 0.2 0.3 0.3 0.6 0.5 0.2 0.2 0.4 0.3 0.3 0.2 0.6 0.4l0.4 0.2c0.1 0.1 0.2 0.3 0.1 0.4-0.1 0.1-0.2 0.1-0.4 0.1l-0.4-0.3q-0.3-0.2-0.6-0.4-0.1-0.1-0.3-0.3-0.4-0.2-0.8-0.5-0.1-0.1-0.2-0.2l-0.2-0.1-1 1.3 0.2 0.2 0.4-0.6q0.1 0 0.2 0 0.1-0.1 0.1 0l0.2 0.1q0.1 0.1 0.1 0.1 0.1 0.1 0.2 0.2l0.6 0.4q0 0 0.1 0.1 0 0.1-0.1 0.2l-1.4 2q0 0.1-0.1 0.1-0.1 0-0.1 0z"/><path class="b" d="m18 64.3q-0.1 0-0.1-0.1l-0.1-0.1q-0.1 0-0.1-0.1-0.1-0.1-0.3-0.2l-0.8-0.9q-0.3-0.3-0.5-0.6l-0.8-0.8q0-0.1 0-0.2 0-0.1 0-0.2l2.9-2.4c0.1-0.1 0.3 0 0.4 0.1 0 0.1 0 0.2-0.1 0.3l-2.6 2.2 0.6 0.7q0.2 0.3 0.4 0.5l0.9 0.9q0.1 0.2 0.2 0.3 0 0 0 0l1.4-1.4q-0.2-0.1-0.3-0.3l-0.3-0.3-0.5 0.5c0 0.1-0.2 0.1-0.3 0l-0.5-0.5q-0.1-0.1-0.1-0.1c0-0.1 0-0.3 0.1-0.3l1.6-1.5q0.1-0.1 0.2-0.1 0.1 0 0.1 0.1 0.1 0 0.1 0.1l0.3 0.3q0.1 0.1 0.3 0.2 0.2 0.3 0.5 0.6l0.8 0.8q0.2 0.1 0.3 0.2l0.1 0.1c0.1 0.1 0.1 0.2 0 0.3-0.1 0.1-0.2 0.2-0.3 0.1l-0.2-0.1q-0.1-0.1-0.2-0.3l-0.9-0.8q-0.3-0.3-0.5-0.5-0.1-0.2-0.3-0.3l-0.1-0.2-1.3 1.2 0.2 0.2 0.5-0.5c0.1-0.1 0.2-0.1 0.3 0l0.5 0.5q0.1 0.1 0.2 0.2l0.2 0.2q0.1 0.1 0.1 0.2 0 0.1-0.1 0.2l-1.7 1.7q0 0.1-0.1 0.1z"/><path class="b" d="m14.5 60.3q-0.1 0-0.2-0.1l-0.3-0.5-0.8-1-0.7-1.1c-0.2-0.3-0.3-0.5-0.3-0.5 0-0.1 0-0.3 0.1-0.4l3.2-1.9c0.1 0 0.3 0 0.3 0.1 0.1 0.1 0.1 0.3 0 0.4l-3 1.7q0.1 0.2 0.2 0.3l0.7 1.1 0.9 1.3 1.5-1.2-0.4-0.6-0.6 0.4c-0.1 0.1-0.3 0-0.3-0.1l-0.3-0.3c-0.1-0.2-0.2-0.3-0.2-0.3-0.1-0.2 0-0.3 0.1-0.4l1.8-1.2q0.1-0.1 0.2 0 0.1 0 0.2 0.1v0.1q0.1 0.1 0.2 0.3l0.7 0.9q0.1 0.2 0.2 0.3 0.1 0.1 0.2 0.2l0.6 0.8c0.1 0.1 0.1 0.3 0 0.4-0.1 0-0.3 0-0.4-0.1l-0.6-0.8q-0.1-0.1-0.1-0.2-0.2-0.1-0.3-0.3l-0.7-0.9q-0.1-0.1-0.1-0.2l-1.4 0.9q0 0.1 0 0.1l0.1 0.1 0.6-0.3c0.1-0.1 0.2-0.1 0.3 0l0.6 0.9q0.1 0.1 0.1 0.1 0.1 0.1 0.1 0.1c0 0.1 0 0.2-0.1 0.3l-1.9 1.4q-0.1 0.1-0.2 0.1z"/><path class="b" d="m11.7 55.8q-0.1 0-0.1 0-0.1 0-0.2-0.1l-0.5-1.1q-0.1-0.1-0.1-0.3-0.1-0.1-0.1-0.2l-0.6-1.2q-0.1-0.2-0.1-0.3-0.1-0.1-0.1-0.2v-0.1c-0.1-0.1 0-0.3 0.1-0.3l3.4-1.4c0.2-0.1 0.3 0 0.3 0.1 0.1 0.1 0 0.3-0.1 0.3l-3.2 1.3q0 0.1 0 0.1 0.1 0.1 0.1 0.2l0.6 1.3q0.1 0.1 0.1 0.2 0.1 0.2 0.1 0.3l0.5 0.9 1.7-1-0.4-0.7-0.6 0.3c-0.1 0.1-0.3 0.1-0.3-0.1 0 0-0.1-0.2-0.2-0.3l-0.2-0.4c0-0.1 0-0.3 0.2-0.3l2-1q0.1 0 0.2 0 0 0.1 0.1 0.2l0.2 0.4q0.1 0.3 0.3 0.6 0.1 0.2 0.2 0.4 0.2 0.5 0.4 0.8l0.4 0.7c0.1 0.1 0 0.2-0.1 0.3-0.1 0.1-0.3 0-0.3-0.1l-0.4-0.6c-0.1-0.2-0.3-0.5-0.4-0.8q-0.1-0.2-0.2-0.4-0.2-0.4-0.3-0.7l-0.2-0.2-1.5 0.7 0.1 0.2q0 0 0 0.1l0.6-0.3c0.1-0.1 0.3 0 0.3 0.1l0.6 1.1c0.1 0.1 0 0.3-0.1 0.4l-2.1 1.1q-0.1 0-0.1 0z"/><path class="b" d="m13.5 51q-0.2 0-0.2-0.2l-0.2-0.4q-0.1-0.1-0.1-0.2-0.1-0.2-0.1-0.3v-0.1q-0.1-0.2-0.2-0.5l-0.2-0.7q-0.1-0.1-0.1-0.2l-0.1-0.5-1.7 0.5 0.1 0.3 0.6-0.2q0.1 0 0.2 0 0.1 0.1 0.1 0.2h0.1q0 0 0 0.1l0.3 1c0.1 0.2 0 0.3-0.1 0.4l-2.3 0.8q-0.1 0-0.2 0-0.1-0.1-0.1-0.2l-0.4-1.1q-0.1-0.2-0.1-0.4-0.1-0.2-0.1-0.3 0-0.2-0.1-0.4-0.1-0.5-0.2-0.8l-0.2-0.6c0-0.1 0.1-0.3 0.2-0.3l3.6-0.8c0.2-0.1 0.3 0 0.3 0.1 0.1 0.2 0 0.3-0.2 0.3l-3.3 0.8v0.4q0.1 0.3 0.3 0.8 0 0.2 0.1 0.4 0 0.1 0.1 0.2 0 0.2 0.1 0.4l0.3 0.9 1.8-0.6-0.3-0.8-0.6 0.2q-0.1 0.1-0.2 0-0.1 0-0.1-0.1l-0.2-0.8q-0.1-0.1 0-0.2 0-0.1 0.1-0.1l2.2-0.6q0.1 0 0.1 0 0.1 0.1 0.2 0.2l0.2 0.7q0 0.1 0 0.2l0.2 0.6q0.1 0.3 0.2 0.6 0.1 0.2 0.2 0.3 0 0.1 0 0.2l0.2 0.5c0.1 0.1 0 0.2-0.1 0.3q-0.1 0-0.1 0z"/><path class="b" d="m12.1 46.5c-0.1 0-0.2-0.1-0.3-0.2l-0.1-0.5q-0.1-0.3-0.1-0.8-0.1-0.2-0.1-0.3l-0.1-0.6q0-0.2-0.1-0.4 0-0.1 0-0.2v-0.2l-1.7 0.2v0.3l0.7-0.1q0.1 0 0.2 0 0 0.1 0.1 0.2l0.1 0.6 0.1 0.6c0 0.1-0.1 0.3-0.2 0.3l-2.4 0.4q-0.1 0.1-0.2 0-0.1-0.1-0.1-0.2l-0.2-1.1q0-0.3-0.1-0.5l-0.1-1.2q0-0.1 0-0.2l-0.1-0.7c0-0.1 0.1-0.2 0.2-0.2l3.7-0.3c0.2 0 0.3 0.1 0.3 0.2 0 0.1-0.1 0.2-0.2 0.3l-3.5 0.2 0.1 0.5q0 0 0 0.1l0.1 1.2q0.1 0.3 0.1 0.5l0.1 0.9 1.9-0.3-0.1-0.8-0.7 0.1q-0.1 0-0.1-0.1-0.1 0-0.1-0.1l-0.1-0.8q-0.1-0.1 0-0.2 0.1-0.1 0.2-0.1l2.2-0.3c0.1 0 0.2 0.1 0.2 0.2l0.1 0.6q0 0 0 0.1 0 0.2 0.1 0.4l0.1 0.6q0 0.1 0 0.3 0.1 0.4 0.2 0.8l0.1 0.5c0 0.1 0 0.2-0.2 0.3q0 0 0 0z"/><path class="b" d="m11.4 41.8c-0.2 0-0.3-0.1-0.3-0.2l-0.1-1.3v-1q0-0.2 0-0.4 0-0.1 0-0.1 0-0.2 0-0.3l-1.7-0.1v0.3h0.7q0.1 0 0.1 0.1 0.1 0.1 0.1 0.2v0.2 1.1c0 0.1-0.1 0.2-0.2 0.2l-2.4 0.1q-0.1 0-0.2-0.1-0.1-0.1-0.1-0.2v-1.1-1.4q0-0.4 0.1-0.6v-0.6c0-0.1 0.1-0.3 0.3-0.2l3.7 0.2c0.1 0 0.2 0.2 0.2 0.3 0 0.1-0.1 0.2-0.3 0.2l-3.4-0.2v0.3q-0.1 0.3-0.1 0.6v1.4 0.9l1.9-0.1v-0.8h-0.6q-0.2 0-0.2 0-0.1-0.1-0.1-0.2v-0.8q0-0.1 0.1-0.2 0.1-0.1 0.2-0.1l2.2 0.1c0.1 0 0.2 0.1 0.2 0.3 0 0 0 0.2 0 0.5q0 0.1 0 0.1 0 0.2 0 0.4l0.1 1.7v0.5c0 0.2-0.1 0.3-0.2 0.3q0 0 0 0z"/><path class="b" d="m11.4 37.1q-0.1 0-0.1 0c-0.1 0-0.2-0.2-0.2-0.3l0.1-0.8q0-0.1 0-0.2v-0.1q0-0.2 0.1-0.5l0.1-0.7q0-0.1 0-0.3 0-0.1 0-0.2 0.1-0.1 0.1-0.3l-1.7-0.3v0.3l0.6 0.1q0.1 0.1 0.2 0.1 0 0.1 0 0.2v0.2l-0.1 1.1c-0.1 0.1-0.2 0.2-0.3 0.2l-2.4-0.3q-0.1 0-0.2-0.1-0.1-0.1 0-0.2l0.1-0.8q0-0.1 0-0.4l0.3-1.6 0.2-0.9c0-0.1 0.2-0.2 0.3-0.2l3.6 0.9c0.1 0 0.2 0.1 0.2 0.3 0 0.1-0.2 0.2-0.3 0.1l-3.4-0.7-0.1 0.6-0.3 1.6q0 0.2-0.1 0.4v0.5l1.9 0.3 0.1-0.8-0.7-0.1q-0.1 0-0.1-0.1-0.1-0.1-0.1-0.2l0.2-0.8q0-0.1 0.1-0.2 0.1 0 0.2 0l2.1 0.4c0.2 0 0.2 0.1 0.2 0.3 0 0 0 0.2-0.1 0.5q0 0.1 0 0.2 0 0.1-0.1 0.3v0.7q-0.1 0.3-0.1 0.5v0.1q0 0.1 0 0.2l-0.1 0.7c0 0.2-0.1 0.3-0.3 0.3z"/><path class="b" d="m12.1 32.4q-0.1 0-0.1 0c-0.1-0.1-0.2-0.2-0.2-0.3l0.1-0.5q0.1-0.2 0.2-0.5 0.1-0.3 0.2-0.6v-0.2q0.1-0.2 0.1-0.4l0.3-0.8-1.6-0.5-0.1 0.2 0.6 0.2q0.1 0.1 0.1 0.2 0.1 0.1 0.1 0.2l-0.1 0.1q-0.1 0.2-0.1 0.4l-0.2 0.7c0 0.1-0.2 0.2-0.3 0.1l-2.3-0.6q-0.1-0.1-0.2-0.1 0-0.1 0-0.2l0.2-0.6c0-0.3 0.1-0.6 0.3-1l0.3-0.9q0-0.2 0.1-0.4 0.1-0.1 0.1-0.1l0.2-0.6q0-0.1 0.1-0.1 0.1-0.1 0.2 0l3.5 1.4c0.1 0 0.2 0.1 0.1 0.3 0 0.1-0.2 0.2-0.3 0.1l-3.2-1.3-0.2 0.3q0 0.1 0 0.2-0.1 0.2-0.2 0.4l-0.3 0.9c-0.1 0.3-0.2 0.7-0.3 0.9l-0.1 0.4 1.9 0.5 0.1-0.4q0.1-0.2 0.1-0.4l-0.6-0.2q-0.1 0-0.2-0.1 0-0.1 0-0.2l0.3-0.7q0-0.1 0.1-0.2 0.1 0 0.2 0l2.1 0.7c0.1 0.1 0.2 0.2 0.1 0.3l-0.3 1q-0.1 0.2-0.1 0.4l-0.1 0.2q-0.1 0.3-0.1 0.6l-0.1 0.1q0 0.2-0.1 0.4l-0.1 0.5c0 0.1-0.1 0.2-0.2 0.2z"/><path class="b" d="m13.5 27.9q-0.1 0-0.1 0c-0.1-0.1-0.2-0.2-0.1-0.4l0.2-0.4 0.4-1.1q0.2-0.4 0.4-0.8 0.1-0.1 0.1-0.2l0.2-0.3-1.5-0.8-0.2 0.3 0.6 0.3q0.1 0 0.1 0.1 0.1 0.1 0 0.2l-0.1 0.3q-0.1 0.1-0.2 0.3l-0.2 0.6q-0.1 0-0.2 0.1-0.1 0-0.2 0l-2.2-1c-0.1-0.1-0.1-0.2-0.1-0.4 0 0 0.1-0.2 0.3-0.5q0.1-0.3 0.3-0.7 0.1-0.2 0.2-0.4 0.1-0.2 0.2-0.3 0.1-0.2 0.2-0.4l0.6-1q0-0.1 0.1-0.1 0.1 0 0.2 0l3.2 1.9c0.1 0.1 0.1 0.2 0.1 0.4-0.1 0.1-0.2 0.1-0.4 0l-2.9-1.7-0.5 0.8q-0.1 0.2-0.2 0.4-0.1 0.1-0.1 0.2-0.1 0.2-0.2 0.4-0.2 0.4-0.4 0.7-0.1 0.2-0.1 0.3l1.7 0.8 0.2-0.3q0.1-0.2 0.1-0.3l0.1-0.1-0.6-0.3q-0.1 0-0.2-0.1 0-0.1 0.1-0.2l0.3-0.7q0.1-0.1 0.2-0.1 0.1-0.1 0.2 0l1.9 1c0.1 0.1 0.2 0.2 0.1 0.3l-0.2 0.5q-0.1 0.1-0.2 0.3-0.1 0.3-0.3 0.7l-0.5 1-0.2 0.5q0 0.2-0.2 0.2z"/><path class="b" d="m15.8 23.5l-0.4-0.2 0.1-0.2q0-0.1 0.2-0.3l0.6-0.9q0.2-0.4 0.4-0.7 0.1-0.1 0.2-0.3l0.2-0.2-1.4-1-0.1 0.2 0.5 0.4c0.1 0.1 0.1 0.2 0.1 0.3l-0.4 0.6q-0.2 0.2-0.2 0.3l-0.2 0.2q0 0.1-0.1 0.1-0.1 0-0.2-0.1l-2-1.3c-0.1-0.1-0.2-0.2-0.1-0.3l0.1-0.2q0 0 0.1-0.1 0-0.1 0.1-0.2l0.8-1.1q0.2-0.2 0.3-0.4l0.8-1q0.1-0.1 0.2-0.1 0.1 0 0.2 0l2.8 2.4c0.1 0.1 0.2 0.2 0.1 0.3-0.1 0.1-0.3 0.1-0.4 0.1l-2.6-2.2-0.7 0.8q-0.2 0.2-0.3 0.4l-0.8 1.1q-0.1 0.1-0.1 0.2 0 0 0 0l1.6 1.1q0.1-0.2 0.2-0.3l0.2-0.3-0.5-0.4c-0.1-0.1-0.2-0.3-0.1-0.4l0.4-0.5q0.1-0.1 0.1-0.1c0.1-0.1 0.2-0.2 0.3-0.1l1.8 1.3q0.1 0.1 0.1 0.2 0 0.1-0.1 0.2 0 0 0 0.1l-0.3 0.3q-0.1 0.1-0.2 0.3-0.2 0.3-0.4 0.6l-0.6 1q-0.1 0.2-0.2 0.3l-0.1 0.1z"/><path class="b" d="m18.3 19.8q-0.1 0-0.1-0.1c-0.1-0.1-0.2-0.3-0.1-0.4l0.7-0.7q0.1-0.1 0.1-0.2 0.2-0.2 0.3-0.3l0.8-0.8q0.1-0.1 0.2-0.2l-1.2-1.3-0.1 0.2q0 0-0.1 0.1l0.5 0.4c0.1 0.1 0.1 0.3 0 0.4l-0.7 0.8q-0.1 0-0.1 0l-0.1 0.1q0 0.1-0.1 0.1-0.1 0-0.2-0.1l-1.8-1.6c-0.1-0.1-0.1-0.3 0-0.4l0.1-0.1 0.5-0.5q0.3-0.4 0.7-0.7l0.9-0.9c0.2-0.3 0.4-0.4 0.4-0.4 0.1-0.1 0.3-0.1 0.4 0l2.4 2.8c0.1 0.1 0.1 0.2 0 0.3-0.1 0.1-0.2 0.1-0.3 0l-2.3-2.6q-0.1 0.1-0.3 0.2l-0.9 0.9q-0.3 0.4-0.6 0.7l-0.5 0.5 1.4 1.3 0.6-0.6-0.5-0.5c-0.1 0-0.1-0.2 0-0.3 0 0 0.1-0.1 0.3-0.3l0.2-0.3c0.1-0.1 0.3-0.1 0.4 0l1.5 1.6q0.1 0.1 0.1 0.2 0 0.1-0.1 0.2l-0.1 0.1q-0.1 0.1-0.2 0.2l-0.8 0.8q-0.2 0.2-0.3 0.3 0 0.1-0.1 0.2l-0.7 0.8q-0.1 0.1-0.2 0.1z"/><path class="b" d="m21.6 16.3q-0.1 0-0.2 0c-0.1-0.1-0.1-0.3 0-0.4l0.5-0.4c0.3-0.2 0.5-0.4 0.8-0.7q0.2-0.1 0.4-0.2 0.3-0.3 0.5-0.5l0.2-0.1-0.9-1.4-0.2 0.1q0 0-0.1 0.1l0.4 0.5c0.1 0.1 0.1 0.3 0 0.3l-1 0.8c-0.1 0.1-0.3 0.1-0.4 0l-1.5-1.9q-0.1-0.1-0.1-0.2 0-0.1 0.1-0.1l1.2-1 1.4-0.9 0.5-0.4c0.1 0 0.2 0 0.3 0.1l2 3.1c0.1 0.1 0.1 0.3 0 0.4-0.1 0-0.3 0-0.4-0.1l-1.9-2.9-0.3 0.2-1.5 1.1-0.8 0.6 1.3 1.5 0.6-0.5-0.4-0.5c-0.1-0.1-0.1-0.3 0-0.4l0.1-0.1q0.1 0 0.2-0.1l0.4-0.3c0.1 0 0.2 0 0.3 0.1l1.3 1.8q0.1 0.1 0 0.2 0 0.1-0.1 0.1l-0.4 0.3q-0.2 0.2-0.5 0.4-0.2 0.2-0.4 0.3c-0.2 0.2-0.5 0.5-0.7 0.7l-0.5 0.4q-0.1 0-0.2 0z"/><path class="b" d="m25.4 13.5q-0.2 0-0.2-0.1c-0.1-0.2-0.1-0.3 0-0.4l0.5-0.3q0.1 0 0.1-0.1 0.2-0.1 0.3-0.2l0.7-0.3q0.5-0.3 0.9-0.5l0.2-0.1-0.8-1.6-0.2 0.2 0.3 0.6c0 0.1 0 0.2-0.1 0.3q0 0 0 0-0.1 0-0.2 0.1l-0.9 0.5c-0.1 0.1-0.3 0.1-0.3-0.1l-1.3-2q0-0.1 0-0.2 0-0.1 0.1-0.2l1-0.6 1.8-0.9 0.6-0.2q0-0.1 0.1 0 0.1 0 0.2 0.1l1.5 3.4c0.1 0.1 0 0.3-0.1 0.3-0.1 0.1-0.3 0-0.3-0.1l-1.5-3.2-0.6 0.3-1.5 0.8-0.7 0.4 1 1.7 0.6-0.4-0.3-0.6q0-0.1 0-0.2 0-0.1 0.1-0.1l0.7-0.4q0.1 0 0.2 0 0.1 0 0.2 0.1l1 2c0 0.1 0 0.2-0.1 0.3l-0.5 0.2q-0.4 0.2-0.8 0.5l-0.7 0.4q-0.2 0.1-0.3 0.2-0.1 0-0.2 0.1l-0.4 0.2q-0.1 0.1-0.1 0.1z"/><path class="b" d="m29.5 11.2q-0.1 0-0.2-0.1c0-0.2 0-0.3 0.1-0.4l0.5-0.2q0.2-0.1 0.4-0.1l0.7-0.3q0.1 0 0.2-0.1 0.2-0.1 0.3-0.1l0.8-0.3-0.5-1.6-0.3 0.1 0.2 0.6q0 0.1 0 0.2 0 0.1-0.1 0.1l-0.4 0.2-0.8 0.3c-0.1 0-0.3 0-0.3-0.2l-0.9-2.2q-0.1-0.1 0-0.2 0-0.1 0.1-0.1l0.6-0.3q0.3-0.1 0.8-0.3 0.2 0 0.4-0.1l0.6-0.2q0.2-0.1 0.4-0.1 0.1-0.1 0.2-0.1l0.6-0.1q0.1-0.1 0.2 0 0 0 0.1 0.1l1 3.6c0 0.1-0.1 0.3-0.2 0.3-0.1 0-0.3 0-0.3-0.2l-0.9-3.3-0.4 0.1q0 0-0.1 0-0.2 0.1-0.4 0.2l-0.7 0.2q-0.2 0-0.3 0.1-0.5 0.2-0.9 0.3l-0.3 0.1 0.7 1.8 0.8-0.3-0.3-0.6q0-0.1 0-0.2 0.1-0.1 0.2-0.1l0.7-0.3q0.1 0 0.2 0.1 0.1 0 0.2 0.1l0.6 2.1c0.1 0.1 0 0.3-0.1 0.3l-1 0.3q-0.2 0.1-0.4 0.2-0.1 0-0.2 0.1l-0.7 0.2q-0.2 0.1-0.3 0.2l-0.5 0.2q0 0-0.1 0z"/><path class="b" d="m34 9.6c-0.1 0-0.2-0.1-0.2-0.2-0.1-0.1 0-0.2 0.1-0.3l0.5-0.1 1.1-0.3q0.5-0.1 0.9-0.1 0.1-0.1 0.3-0.1h0.2l-0.2-1.7h-0.3l0.1 0.7q0 0.1-0.1 0.2 0 0-0.1 0.1h-0.2q-0.1 0-0.1 0-0.2 0-0.3 0.1l-0.6 0.1q-0.1 0-0.2 0-0.1-0.1-0.1-0.2l-0.6-2.3c0-0.2 0.1-0.3 0.2-0.3l0.6-0.2q0.2 0 0.4 0l1.1-0.2q0.2-0.1 0.4-0.1l1.2-0.2q0.1 0 0.2 0.1 0.1 0.1 0.1 0.2l0.4 3.6c0 0.2-0.1 0.3-0.2 0.3-0.1 0-0.3-0.1-0.3-0.2l-0.4-3.4-0.9 0.1q-0.2 0-0.4 0.1l-1.1 0.1q-0.2 0.1-0.4 0.1l-0.3 0.1 0.4 1.9 0.4-0.1q0.1 0 0.3-0.1 0 0 0.1 0l-0.2-0.6q0-0.1 0.1-0.2 0-0.1 0.1-0.1l0.8-0.2q0.1 0 0.2 0.1 0.1 0 0.1 0.1l0.4 2.2c0 0.2-0.1 0.3-0.2 0.3l-0.5 0.1q-0.2 0-0.3 0.1-0.4 0-0.8 0.1l-1.1 0.3-0.5 0.1q-0.1 0-0.1 0z"/><path class="b" d="m38.6 8.7c-0.1 0-0.2-0.1-0.2-0.2 0-0.1 0.1-0.3 0.2-0.3h0.1q0.1 0 0.1 0 0.2 0 0.3 0l1.5-0.2h1.1v-1.7h-0.3v0.7q0 0.1-0.1 0.2 0 0-0.1 0l-0.7 0.1h-0.6q-0.1 0-0.2-0.1-0.1 0-0.1-0.1l-0.1-2.4c0-0.2 0.1-0.3 0.2-0.3l0.6-0.1q0.3 0 0.8 0 0.2 0 0.5 0 0.1 0 0.2 0 0.2 0 0.5 0h1.2q0.1 0 0.1 0.1 0.1 0.1 0.1 0.2l-0.1 3.7c0 0.1-0.2 0.2-0.3 0.2-0.1 0-0.2-0.1-0.2-0.2l0.1-3.5h-0.9q-0.2 0-0.5 0-0.1 0-0.2 0-0.3 0-0.5 0-0.4 0-0.8 0l-0.3 0.1 0.1 1.9h0.4l0.4-0.1v-0.6q0-0.1 0-0.2 0.1-0.1 0.2-0.1h0.8q0.1 0 0.2 0.1 0.1 0 0.1 0.2v2.2c0 0.1-0.1 0.2-0.3 0.2l-1.6 0.1h-1.1q-0.2 0.1-0.3 0.1 0 0-0.1 0h-0.1q0 0-0.1 0z"/><path class="b" d="m48 9.1q0 0 0-0.1c-0.2 0-0.2-0.1-0.2-0.2l0.6-3.4-0.9-0.2q-0.2 0-0.4-0.1-0.1 0-0.3 0-0.2 0-0.4 0-0.5-0.1-0.8-0.1l-0.4-0.1-0.1 2h0.4 0.4v-0.6q0.1-0.1 0.1-0.2 0.1-0.1 0.2-0.1l0.8 0.1q0.1 0.1 0.2 0.1 0 0.1 0 0.2l-0.3 2.2c0 0.1-0.1 0.2-0.3 0.2l-1.6-0.2-1.1-0.1q-0.2 0-0.3 0 0 0-0.1 0h-0.1c-0.2 0-0.3-0.1-0.3-0.2 0-0.2 0.1-0.3 0.3-0.3h0.1q0.1 0 0.1 0 0.2 0 0.3 0.1l1.8 0.1 0.8 0.1 0.2-1.7h-0.3l-0.1 0.6q0 0.1-0.1 0.2-0.1 0.1-0.2 0.1l-0.6-0.1-0.6-0.1q-0.1 0-0.2-0.1 0 0 0-0.1l0.2-2.5c0-0.1 0.1-0.2 0.2-0.2l0.6 0.1q0.4 0 0.8 0.1 0.3 0 0.5 0 0.1 0 0.2 0.1 0.3 0 0.5 0l1.2 0.2q0.1 0 0.1 0.1 0.1 0.1 0.1 0.2l-0.7 3.7c-0.1 0.1-0.2 0.2-0.3 0.2z"/><path class="b" d="m52.6 10.3q-0.1 0-0.1 0c-0.1-0.1-0.2-0.2-0.1-0.3l1.1-3.3-0.3-0.1q-0.1 0-0.3-0.1-0.4-0.1-0.9-0.3l-1.2-0.3-0.4-0.1-0.4 1.9q0 0 0.1 0 0.1 0 0.3 0.1l0.3 0.1 0.2-0.7q0.1-0.1 0.1-0.1 0.1-0.1 0.2 0l0.8 0.2q0.1 0 0.2 0.1 0 0.1 0 0.2l-0.7 2.1c0 0.1-0.1 0.2-0.3 0.2l-1.1-0.4q-0.2 0-0.5-0.1l-1.1-0.2q-0.2-0.1-0.3-0.1h-0.2c-0.1-0.1-0.2-0.2-0.2-0.3 0.1-0.2 0.2-0.2 0.3-0.2h0.2q0.1 0 0.3 0.1l1.2 0.2q0.2 0.1 0.5 0.2l0.8 0.2 0.5-1.6-0.3-0.1-0.1 0.6q-0.1 0.1-0.2 0.2-0.1 0-0.2 0l-0.6-0.2q-0.1 0-0.2 0-0.1 0-0.2-0.1h-0.2q-0.1 0-0.1-0.1-0.1-0.1-0.1-0.2l0.6-2.4c0-0.1 0.2-0.2 0.3-0.1l0.6 0.1 1.2 0.3q0.5 0.2 1 0.3 0.1 0.1 0.3 0.1l0.5 0.2q0.1 0.1 0.2 0.1 0 0.1 0 0.2l-1.3 3.5q0 0.2-0.2 0.2z"/><path class="b" d="m56.9 12.2q0 0-0.1 0c-0.1-0.1-0.2-0.2-0.1-0.3l1.6-3.1-0.8-0.4q-0.1 0-0.2-0.1-0.2-0.1-0.4-0.2l-1.2-0.5q-0.1-0.1-0.3-0.2l-0.7 1.8q0.1 0.1 0.4 0.2l0.3 0.1 0.3-0.6c0.1-0.1 0.2-0.1 0.3-0.1l0.8 0.3c0.1 0.1 0.1 0.3 0.1 0.4l-1 2q0 0.1-0.1 0.1-0.1 0-0.2 0 0 0-0.1-0.1l-1.4-0.6-1.2-0.5q-0.1 0-0.2-0.1h-0.1c-0.2 0-0.2-0.2-0.2-0.3 0.1-0.1 0.2-0.2 0.3-0.2l0.2 0.1q0.1 0 0.2 0.1l1.2 0.4 1.3 0.6 0.7-1.5-0.2-0.1-0.3 0.6c-0.1 0.1-0.2 0.1-0.4 0.1l-0.5-0.3q-0.3-0.1-0.4-0.1l-0.2-0.1q-0.1-0.1-0.1-0.2-0.1 0 0-0.1l0.9-2.3c0-0.1 0.2-0.2 0.3-0.1l0.2 0.1q0.1 0 0.3 0.1l1.2 0.5q0.3 0.1 0.5 0.3 0.1 0 0.1 0l1.1 0.6q0.1 0 0.1 0.1 0 0.1 0 0.2l-1.8 3.3q0 0.1-0.2 0.1z"/><path class="b" d="m60.9 14.8q-0.1 0-0.2-0.1c-0.1 0-0.1-0.2 0-0.3l2.1-2.8q-0.1 0-0.2-0.1l-1.1-0.8q-0.4-0.3-0.8-0.5l-0.6-0.4-1 1.7 0.7 0.4 0.4-0.6c0-0.1 0.2-0.1 0.3 0l0.3 0.2 0.4 0.2c0.1 0.1 0.1 0.3 0 0.4l-1.2 1.8q-0.1 0.1-0.2 0.1-0.1 0-0.2-0.1l-0.1-0.1q-0.1 0-0.3-0.1l-0.9-0.7q-0.2-0.1-0.4-0.2l-1.1-0.6c-0.1 0-0.1-0.2 0-0.3 0-0.1 0.2-0.2 0.3-0.1l1 0.6q0.2 0.1 0.4 0.2l1 0.6q0.1 0.1 0.2 0.2l1-1.4-0.3-0.2-0.3 0.6c-0.1 0.1-0.2 0.1-0.4 0.1l-0.9-0.6q0-0.1-0.1-0.1-0.1-0.1-0.1-0.2-0.1-0.1 0-0.2l1.2-2c0.1-0.1 0.3-0.2 0.4-0.1q0 0 0.1 0.1l0.7 0.4q0.4 0.2 0.8 0.5l1.1 0.8q0.2 0.1 0.3 0.2l0.1 0.1c0.1 0.1 0.1 0.2 0 0.3l-2.2 3q-0.1 0.1-0.2 0.1z"/><path class="b" d="m64.4 17.9q-0.1 0-0.1 0c-0.1-0.1-0.1-0.3 0-0.4l2.4-2.4-0.2-0.2-1.2-1.2q0 0-0.1-0.1l-0.1-0.1q-0.3-0.2-0.5-0.4l-0.2-0.2-1.2 1.5 0.5 0.5 0.5-0.5c0.1-0.1 0.2-0.1 0.3 0l0.3 0.3 0.3 0.2c0.1 0.1 0.1 0.3 0 0.4l-1.5 1.6q0 0.1-0.1 0.1-0.1 0-0.2-0.1l-0.4-0.3q-0.2-0.2-0.5-0.5-0.2-0.1-0.3-0.3-0.1-0.1-0.2-0.1-0.1-0.2-0.3-0.3l-0.8-0.6c-0.1-0.1-0.1-0.3-0.1-0.4 0.1-0.1 0.3-0.1 0.4 0l0.8 0.6q0.2 0.2 0.3 0.3 0.1 0.1 0.2 0.1 0.2 0.2 0.3 0.3 0.3 0.3 0.6 0.5l0.1 0.2 1.2-1.3-0.2-0.2-0.4 0.5c-0.1 0.1-0.3 0.1-0.4 0l-0.9-0.8c-0.2-0.1-0.2-0.2-0.1-0.3l1.6-1.9q0-0.1 0.1-0.1 0.1 0 0.2 0.1l0.5 0.4q0.2 0.1 0.4 0.4h0.1q0.1 0.1 0.2 0.2l1.2 1.1 0.4 0.4c0.1 0.1 0.1 0.3 0 0.4l-2.7 2.6q-0.1 0-0.2 0z"/><path class="b" d="m67.5 21.6q-0.2 0-0.2-0.1c-0.1-0.1-0.1-0.3 0-0.4l2.8-2-0.2-0.2q-0.2-0.3-0.5-0.7-0.1-0.2-0.2-0.3l-0.5-0.6-0.6-0.7-1.4 1.3 0.5 0.6 0.5-0.4q0.1-0.1 0.2-0.1 0.1 0 0.2 0.1l0.5 0.6q0 0.1 0 0.2 0 0.1-0.1 0.2l-1.7 1.3c-0.1 0.1-0.3 0.1-0.4 0l-0.3-0.4q0-0.1-0.1-0.1-0.1-0.2-0.2-0.3l-0.5-0.6q-0.4-0.4-0.6-0.7l-0.4-0.4c-0.1-0.1-0.1-0.2 0-0.3 0.1-0.1 0.3-0.1 0.4 0l0.3 0.3q0.3 0.3 0.7 0.8l0.5 0.6q0.1 0.1 0.2 0.3 0.1 0 0.1 0.1l0.2 0.2 1.3-1-0.2-0.3-0.5 0.4q0 0.1-0.2 0.1-0.1 0-0.1-0.1l-0.2-0.2-0.6-0.8c-0.1-0.1-0.1-0.2 0-0.3l1.8-1.6q0.1-0.1 0.2-0.1 0.1 0 0.2 0.1l0.7 0.9 0.5 0.6q0.1 0.1 0.2 0.3 0.3 0.4 0.6 0.7l0.3 0.5q0 0 0 0.1 0 0.1-0.1 0.2l-3 2.1q-0.1 0.1-0.1 0.1z"/><path class="b" d="m69.9 25.7q-0.2-0.1-0.2-0.2c-0.1-0.1 0-0.3 0.1-0.3l3.1-1.6-0.5-0.8-0.9-1.7-0.2-0.3-1.6 1.1 0.2 0.3q0.1 0.2 0.2 0.3v0.1l0.6-0.4q0 0 0.1 0 0.1 0 0.2 0.1l0.4 0.7q0 0.1 0 0.2 0 0.1-0.1 0.1l-1.9 1.1c-0.1 0.1-0.3 0-0.4-0.1l-0.3-0.6q-0.2-0.4-0.5-0.8-0.1-0.2-0.2-0.4-0.2-0.3-0.4-0.5l-0.3-0.5c-0.1-0.1-0.1-0.2 0.1-0.3 0.1-0.1 0.2-0.1 0.3 0l0.3 0.5q0.2 0.2 0.4 0.5 0.1 0.2 0.2 0.4c0.2 0.3 0.4 0.6 0.5 0.9l0.2 0.4 1.5-0.9-0.1-0.2-0.6 0.3q-0.1 0.1-0.2 0-0.1 0-0.1-0.1l-0.2-0.2q0-0.2-0.1-0.3l-0.4-0.6c-0.1-0.1 0-0.2 0.1-0.3l2-1.3q0.1-0.1 0.2 0 0.1 0 0.2 0.1l0.6 1 0.7 1.2 0.5 1q0.1 0.1 0 0.2 0 0.1-0.1 0.2l-3.3 1.6q-0.1 0.1-0.1 0.1z"/><path class="b" d="m71.7 30c-0.1 0-0.2 0-0.3-0.1 0-0.2 0.1-0.3 0.2-0.3l3.3-1.1-0.3-1q-0.1-0.1-0.1-0.2l-0.6-1.5-0.2-0.3-1.7 0.8q0 0 0 0.1 0.1 0.1 0.1 0.2l0.2 0.4 0.6-0.2q0.1-0.1 0.2 0 0.1 0 0.1 0.1l0.3 0.7q0.1 0.1 0 0.2 0 0.1-0.1 0.2l-2.1 0.7c-0.1 0.1-0.3 0-0.3-0.1l-0.4-1.1q-0.1-0.2-0.2-0.4l-0.5-1.1q-0.1-0.2-0.1-0.3l-0.1-0.1c-0.1-0.1 0-0.3 0.1-0.4 0.1 0 0.3 0 0.3 0.1l0.1 0.2q0.1 0.1 0.2 0.3l0.4 1.1q0.1 0.2 0.2 0.4l0.4 0.9 1.6-0.6-0.1-0.3-0.7 0.3q-0.1 0-0.2-0.1 0 0-0.1-0.1l-0.2-0.6q-0.1-0.1-0.1-0.2-0.1-0.1-0.1-0.2l-0.1-0.1q0-0.1 0-0.2 0.1-0.1 0.2-0.2l2.2-1c0.1 0 0.2 0 0.3 0.2l0.2 0.5 0.6 1.5q0.1 0.2 0.1 0.3l0.4 1.2q0.1 0.1 0 0.2 0 0.1-0.1 0.1l-3.6 1.1q0 0 0 0z"/><path class="b" d="m72.8 34.6c-0.2 0-0.3 0-0.3-0.2 0-0.1 0.1-0.2 0.2-0.2l3.4-0.6-0.1-0.9q0-0.1-0.1-0.2 0-0.2-0.1-0.5l-0.2-1.2q-0.1-0.2-0.1-0.3l-1.9 0.5q0.1 0.1 0.1 0.3l0.1 0.4 0.6-0.1c0.2 0 0.3 0 0.3 0.2l0.2 0.8c0 0.1 0 0.2-0.2 0.3l-2.1 0.4q-0.1 0-0.2-0.1-0.1 0-0.1-0.1 0 0-0.1-0.1v-0.4c-0.1-0.3-0.2-0.7-0.3-1.1l-0.4-1.6c-0.1-0.1 0-0.2 0.1-0.3 0.1 0 0.3 0 0.3 0.2l0.1 0.1 0.4 1.5c0.1 0.4 0.2 0.8 0.2 1.1l0.1 0.3 1.7-0.4-0.1-0.3-0.6 0.2c-0.2 0-0.3-0.1-0.3-0.2l-0.2-0.7q0-0.2-0.1-0.3v-0.2q-0.1-0.1 0-0.2 0-0.1 0.1-0.1l2.4-0.7c0.1 0 0.2 0.1 0.3 0.2v0.2q0.1 0.2 0.1 0.4l0.3 1.2q0.1 0.3 0.1 0.5 0 0.1 0.1 0.2l0.2 1.2q0 0.1-0.1 0.2 0 0.1-0.1 0.1l-3.7 0.5q0 0 0 0z"/><path class="b" d="m73.1 39.4c-0.1 0-0.2-0.1-0.2-0.3 0-0.1 0.1-0.2 0.2-0.2h3.5v-0.4q0-0.1 0-0.3 0-0.5-0.1-0.9l-0.1-1.5q0-0.1 0-0.1l-1.9 0.2q0 0.1 0 0.2v0.6l0.7-0.1c0.2 0 0.3 0.1 0.3 0.2v0.4q0 0.1 0 0.2 0 0 0 0.1v0.1c0 0.2-0.1 0.3-0.2 0.3l-2.2 0.1q-0.1 0-0.2-0.1-0.1 0-0.1-0.1v-0.2l-0.1-1.5q0-0.3-0.1-0.7 0-0.2 0-0.4l-0.1-0.5c0-0.1 0.1-0.3 0.2-0.3 0.2 0 0.3 0.1 0.3 0.2l0.1 0.5q0 0.2 0 0.4 0.1 0.4 0.1 0.8l0.1 1.4 1.7-0.1q0 0 0 0 0-0.1 0-0.1v-0.2l-0.7 0.1c-0.1 0-0.2-0.1-0.2-0.3l-0.1-0.6q0-0.1 0-0.2 0-0.1 0-0.2v-0.2q0-0.1 0-0.2 0.1-0.1 0.2-0.1l2.4-0.3c0.1 0 0.3 0.1 0.3 0.3v0.1q0 0.1 0 0.3l0.1 1.4q0.1 0.5 0.1 0.9 0 0.2 0 0.4v0.6q0 0.1-0.1 0.2-0.1 0.1-0.2 0.1h-3.7z"/></svg>