<svg width="60" height="60" viewBox="0 0 60 60" fill="none" xmlns="http://www.w3.org/2000/svg">
<path fill-rule="evenodd" clip-rule="evenodd" d="M10 38.2872V15.9956C10 13.7993 11.7726 12.015 13.9648 12.1498C15.9175 12.2698 18.227 12.507 20 12.9749C22.0984 13.5286 24.5922 14.708 26.5645 15.7509C27.1787 16.0757 27.8319 16.301 28.5004 16.4279V46.7852C27.8943 46.6517 27.3031 46.4361 26.7448 46.1385C24.7459 45.0729 22.1629 43.8375 20 43.2667C18.2466 42.804 15.9686 42.5669 14.0297 42.4456C11.8121 42.3069 10 40.5091 10 38.2872ZM16.3642 22.5448C15.5605 22.3439 14.7461 22.8325 14.5451 23.6362C14.3442 24.4399 14.8329 25.2543 15.6366 25.4552L23.6366 27.4552C24.4402 27.6561 25.2546 27.1675 25.4556 26.3638C25.6565 25.5601 25.1679 24.7457 24.3642 24.5448L16.3642 22.5448ZM16.3642 30.5448C15.5605 30.3439 14.7461 30.8325 14.5451 31.6362C14.3442 32.4399 14.8329 33.2543 15.6366 33.4552L23.6366 35.4552C24.4402 35.6561 25.2546 35.1675 25.4556 34.3638C25.6565 33.5601 25.1679 32.7457 24.3642 32.5448L16.3642 30.5448Z" fill="#DEB757"/>
<path fill-rule="evenodd" clip-rule="evenodd" d="M31.5004 46.7851C32.1061 46.6515 32.6971 46.436 33.2552 46.1385C35.2541 45.0729 37.8371 43.8375 40 43.2667C41.7534 42.804 44.0314 42.5669 45.9703 42.4456C48.1879 42.3069 50 40.5091 50 38.2872V15.8664C50 13.7215 48.3075 11.9608 46.1639 12.0355C43.9068 12.1141 41.0938 12.3481 39 12.9749C37.1847 13.5183 35.0706 14.6084 33.3477 15.6055C32.7648 15.9428 32.1419 16.1906 31.5004 16.3477V46.7851ZM44.3642 25.4552C45.1679 25.2543 45.6565 24.4399 45.4556 23.6362C45.2546 22.8325 44.4402 22.3439 43.6366 22.5448L35.6366 24.5448C34.8329 24.7457 34.3442 25.5601 34.5451 26.3638C34.7461 27.1675 35.5605 27.6561 36.3642 27.4552L44.3642 25.4552ZM44.3642 33.4552C45.1679 33.2543 45.6565 32.4399 45.4556 31.6362C45.2546 30.8325 44.4402 30.3439 43.6366 30.5448L35.6366 32.5448C34.8329 32.7457 34.3442 33.5601 34.5451 34.3638C34.7461 35.1675 35.5605 35.6561 36.3642 35.4552L44.3642 33.4552Z" fill="#DEB757"/>
</svg>
