<svg width="51" height="51" viewBox="0 0 51 51" fill="none" xmlns="http://www.w3.org/2000/svg">
<path fill-rule="evenodd" clip-rule="evenodd" d="M10.842 13.7401C10.2002 14.6545 10.2002 17.3724 10.2002 22.8083V25.4853C10.2002 35.07 17.4064 39.7213 21.9277 41.6964C23.1542 42.2321 23.7675 42.5 25.5002 42.5C27.2329 42.5 27.8462 42.2321 29.0726 41.6964C33.594 39.7213 40.8002 35.07 40.8002 25.4853V22.8083C40.8002 17.3724 40.8002 14.6545 40.1584 13.7401C39.5166 12.8257 36.961 11.9509 31.8498 10.2013L30.8761 9.86802C28.2117 8.95601 26.8796 8.5 25.5002 8.5C24.1208 8.5 22.7887 8.95601 20.1243 9.86802L19.1505 10.2013C14.0393 11.9509 11.4837 12.8257 10.842 13.7401ZM30.7013 22.9492C31.1702 22.4239 31.1246 21.6179 30.5994 21.1489C30.0741 20.6799 29.2681 20.7256 28.7991 21.2508L23.6788 26.9856L22.2013 25.3308C21.7323 24.8056 20.9263 24.7599 20.401 25.2289C19.8758 25.6979 19.8301 26.5039 20.2991 27.0292L22.7277 29.7492C22.9696 30.0201 23.3156 30.175 23.6788 30.175C24.042 30.175 24.3879 30.0201 24.6298 29.7492L30.7013 22.9492Z" fill="#DEB757"/>
</svg>
