<svg width="51" height="51" viewBox="0 0 51 51" fill="none" xmlns="http://www.w3.org/2000/svg">
<path d="M42.5 25.5C42.5 34.8888 34.8888 42.5 25.5 42.5C16.1112 42.5 8.5 34.8888 8.5 25.5C8.5 16.1112 16.1112 8.5 25.5 8.5C34.8888 8.5 42.5 16.1112 42.5 25.5Z" fill="#DEB757"/>
<path fill-rule="evenodd" clip-rule="evenodd" d="M25.5 17.425C26.2042 17.425 26.775 17.9958 26.775 18.7V24.9719L30.6516 28.8484C31.1495 29.3464 31.1495 30.1536 30.6516 30.6516C30.1536 31.1495 29.3464 31.1495 28.8484 30.6516L24.5984 26.4016C24.3593 26.1625 24.225 25.8382 24.225 25.5V18.7C24.225 17.9958 24.7958 17.425 25.5 17.425Z" fill="#934230"/>
</svg>
