<svg width="50" height="50" viewBox="0 0 50 50" fill="none" xmlns="http://www.w3.org/2000/svg">
<circle cx="21.6667" cy="15.0002" r="6.66667" fill="#DEB757"/>
<path d="M35.0002 34.1665C35.0002 38.3086 35.0002 41.6665 21.6668 41.6665C8.3335 41.6665 8.3335 38.3086 8.3335 34.1665C8.3335 30.0244 14.303 26.6665 21.6668 26.6665C29.0306 26.6665 35.0002 30.0244 35.0002 34.1665Z" fill="#DEB757"/>
<path d="M31.6665 21.1614C31.6665 22.8021 33.6079 24.5357 35.0713 25.6095C35.7709 26.1228 36.1206 26.3794 36.6665 26.3794C37.2124 26.3794 37.5622 26.1228 38.2617 25.6095C39.7251 24.5358 41.6665 22.8021 41.6665 21.1614C41.6665 18.3727 38.9164 17.3315 36.6665 19.4857C34.4166 17.3315 31.6665 18.3727 31.6665 21.1614Z" fill="#DEB757"/>
</svg>
