<svg width="59" height="99" viewBox="0 0 59 99" fill="none" xmlns="http://www.w3.org/2000/svg">
<g clip-path="url(#clip0_2_4755)">
<path d="M25.4447 24.7311L22.3711 27.7981L32.8963 38.3009L35.9699 35.2338L25.4447 24.7311Z" fill="#FFC300"/>
<path d="M15.9969 20.6182C16.3583 21.5082 16.9028 22.3466 17.621 23.0586L18.128 23.5645L21.2026 20.4964L20.6956 19.9905C20.3952 19.6907 20.1746 19.3488 20.0244 18.9881C19.8789 18.6275 19.8037 18.2434 19.8037 17.8546V17.8405C19.8037 17.8359 19.8037 17.8312 19.8037 17.8265C19.8037 17.4424 19.8789 17.0583 20.0244 16.6976C20.1746 16.3323 20.3905 15.995 20.6956 15.6952C20.996 15.3955 21.3387 15.1753 21.7002 15.0254C22.0663 14.8755 22.4559 14.8006 22.8502 14.8006C23.2445 14.8006 23.6341 14.8755 24.0002 15.0207C24.3664 15.1706 24.7044 15.3861 25.0048 15.6906L25.6291 16.3135L32.8955 23.5645L35.9701 20.4964L28.7037 13.2455L28.1029 12.6459L28.0794 12.6225C27.3612 11.9058 26.5257 11.3625 25.6338 11.0018C24.7419 10.6411 23.7984 10.4631 22.8502 10.4631C21.9067 10.4631 20.9585 10.6411 20.0666 11.0018C19.1747 11.3625 18.3345 11.9058 17.621 12.6225C16.9028 13.3392 16.3583 14.1776 15.9969 15.0629C15.6354 15.9529 15.457 16.8944 15.457 17.8405C15.457 18.782 15.6354 19.7282 15.9969 20.6182Z" fill="#FFC300"/>
<path d="M36.7309 26.9884L36.8483 26.8713C37.191 26.5247 37.5195 26.2015 37.82 25.9017C38.4865 25.2413 39.031 24.7026 39.416 24.3372C39.5474 24.2108 39.6554 24.1077 39.7398 24.0281L39.7586 24.0094L39.7868 24L39.8431 23.9766L40.7538 23.0679C41.472 22.3512 42.0165 21.5128 42.3779 20.6275C42.7394 19.7375 42.9177 18.796 42.9177 17.8498C42.9177 16.9083 42.7394 15.9621 42.3779 15.0722C42.0165 14.1822 41.472 13.3437 40.7538 12.6318C40.0356 11.9151 39.1953 11.3718 38.3082 11.0111C37.4163 10.6504 36.4728 10.4724 35.5246 10.4724C34.5811 10.4724 33.6329 10.6504 32.741 11.0111C31.8491 11.3718 31.0089 11.9151 30.2954 12.6318L29.7884 13.1376L32.863 16.2057L33.37 15.6998C33.6704 15.4 34.0131 15.1799 34.3745 15.03C34.7407 14.8801 35.1303 14.8052 35.5246 14.8052C35.9189 14.8052 36.3085 14.8801 36.6746 15.0253C37.0408 15.1752 37.3787 15.3907 37.6791 15.6951C37.9796 15.9949 38.2002 16.3369 38.3504 16.7022C38.5006 17.0676 38.5757 17.4564 38.5757 17.8498C38.5757 18.2433 38.5006 18.6321 38.3551 18.9974C38.2049 19.3628 37.989 19.7 37.6838 19.9998L37.1675 20.515H37.1628C37.0971 20.5759 37.0408 20.6228 36.9844 20.6696C36.8577 20.782 36.7216 20.9085 36.5526 21.0725C36.2568 21.3535 35.8766 21.7235 35.4166 22.1826C34.06 23.5222 32.0087 25.5785 29.6992 27.9018L32.7879 30.9558L32.8396 30.9043L32.863 30.9277C33.4357 30.3516 34.3792 29.396 35.2101 28.5529C35.8954 27.8597 36.4962 27.246 36.7356 26.9978L36.7309 26.9884Z" fill="#FFC300"/>
<path d="M40.7536 39.9165L40.2467 39.4106L37.172 42.4787L37.679 42.9846C37.9794 43.2844 38.2001 43.6263 38.3503 43.987C38.5005 44.3523 38.5756 44.7411 38.5756 45.1346C38.5756 45.528 38.5005 45.9168 38.355 46.2822C38.2047 46.6475 37.9888 46.9848 37.6837 47.2846C37.3833 47.5843 37.0406 47.8045 36.6792 47.9544C36.313 48.1043 35.9234 48.1792 35.5291 48.1792C35.1348 48.1792 34.7452 48.1043 34.3791 47.9544C34.0129 47.8045 33.675 47.589 33.3745 47.2846L32.7502 46.6616L25.4838 39.4106L22.4092 42.4787L29.6756 49.7296L30.2999 50.3526C31.0181 51.0693 31.8537 51.6126 32.7455 51.9733C33.6374 52.334 34.5809 52.512 35.5291 52.512C36.4726 52.512 37.4208 52.334 38.3127 51.9733C39.2046 51.6126 40.0448 51.0693 40.7583 50.3526C41.4765 49.636 42.021 48.7975 42.3825 47.9122C42.7439 47.0222 42.9223 46.0808 42.9223 45.1346C42.9223 44.1931 42.7439 43.2469 42.3825 42.3569C42.021 41.4669 41.4765 40.6285 40.7583 39.9165H40.7536Z" fill="#FFC300"/>
<path d="M39.858 32.4663L29.7676 42.5352L32.8412 45.6022L42.9316 35.5333L39.858 32.4663Z" fill="#FFC300"/>
<path d="M28.6801 35.0872L25.5914 32.0332L25.5397 32.0847L25.5162 32.0613C24.9436 32.6374 24.0001 33.593 23.1692 34.4361C22.4792 35.1341 21.8783 35.7477 21.6389 35.9912L21.5216 36.1083C21.1789 36.455 20.8503 36.7782 20.5499 37.0779C19.8834 37.7384 19.3388 38.2771 18.9539 38.6424C18.8225 38.7689 18.7145 38.8719 18.63 38.9516L18.6113 38.9703L18.5831 38.9797L18.5268 39.0031L17.6161 39.9118C16.8979 40.6285 16.3534 41.4622 15.992 42.3522C15.6305 43.2422 15.4521 44.1837 15.4521 45.1298C15.4521 46.0713 15.6305 47.0175 15.992 47.9075C16.3534 48.7975 16.8979 49.6359 17.6161 50.3479C18.3343 51.0646 19.1699 51.6079 20.0617 51.9686C20.9536 52.3293 21.8971 52.5072 22.8453 52.5072C23.7888 52.5072 24.737 52.3293 25.6289 51.9686C26.5208 51.6079 27.361 51.0646 28.0745 50.3479L28.5815 49.842L25.5069 46.774L24.9999 47.2798C24.6995 47.5796 24.3568 47.7998 23.9954 47.9497C23.6292 48.0995 23.2396 48.1745 22.8453 48.1745C22.451 48.1745 22.0614 48.0995 21.6953 47.9497C21.3291 47.7998 20.9912 47.5843 20.6907 47.2798C20.3903 46.9801 20.1697 46.6381 20.0195 46.2728C19.874 45.9121 19.7989 45.528 19.7989 45.1392V45.1298C19.7989 45.1252 19.7989 45.1205 19.7989 45.1158C19.7989 44.7317 19.874 44.3476 20.0195 43.9869C20.1697 43.6216 20.3856 43.2843 20.6907 42.9845L21.2071 42.4693H21.2118C21.2775 42.4084 21.3338 42.3616 21.3902 42.3147C21.5169 42.2023 21.653 42.0758 21.822 41.9119C22.1177 41.6309 22.498 41.2608 22.958 40.8018C24.3146 39.4621 26.3659 37.4058 28.6754 35.0825L28.6801 35.0872Z" fill="#FFC300"/>
<path d="M57.6475 29.1478C57.2861 28.2579 56.7416 27.4194 56.0234 26.7074C55.3052 25.9908 54.4649 25.4474 53.5778 25.0868C52.6859 24.7261 51.7424 24.5481 50.7942 24.5481C49.8507 24.5481 48.9025 24.7261 48.0106 25.0868C47.1187 25.4474 46.2785 25.9908 45.565 26.7074L44.9407 27.3304L44.0065 28.2626L47.0812 31.3306L48.0153 30.3985L48.6396 29.7755C48.94 29.4757 49.2827 29.2556 49.6441 29.1057C50.0103 28.9558 50.3999 28.8855 50.7942 28.8809C51.1838 28.8809 51.5781 28.9558 51.9442 29.1057C52.3104 29.2556 52.6483 29.471 52.9488 29.7755C53.099 29.9254 53.2304 30.0847 53.3431 30.2533C53.4557 30.4219 53.5449 30.5952 53.62 30.7779C53.7608 31.1245 53.8312 31.4946 53.8406 31.8646V31.9208C53.8406 32.3143 53.7655 32.7031 53.62 33.0684C53.4698 33.4338 53.2539 33.771 52.9488 34.0708C52.6483 34.3706 52.3057 34.5907 51.9442 34.7406C51.5781 34.8905 51.1885 34.9608 50.7942 34.9608C50.3999 34.9608 50.0103 34.8858 49.6441 34.7359C49.278 34.586 48.94 34.3706 48.6396 34.0661L48.1186 33.5462H48.1139L48.0904 33.5134C48.02 33.4338 47.9636 33.3682 47.8932 33.2932C47.7618 33.1527 47.6022 32.9841 47.405 32.778C46.7103 32.0613 45.5603 30.9044 44.1802 29.5273C42.8377 28.1876 41.2793 26.6419 39.749 25.1242L36.6885 28.2064C38.6741 30.169 40.6925 32.1738 42.2322 33.7195C43.0161 34.5064 43.678 35.1762 44.1427 35.6493C44.3351 35.8461 44.49 36.01 44.6027 36.1271L44.6215 36.1458L44.6309 36.1739L44.6543 36.2208L45.565 37.1295C46.2832 37.8462 47.1187 38.3895 48.0106 38.7502C48.9025 39.1109 49.846 39.2888 50.7942 39.2888C51.7377 39.2888 52.6859 39.1109 53.5778 38.7502C54.4649 38.3895 55.3052 37.8462 56.0187 37.1342L56.3097 36.7548V36.8203C56.8026 36.2723 57.2063 35.6634 57.5067 35.0217C57.5583 34.9139 57.6053 34.8015 57.6522 34.6891C58.0137 33.7991 58.192 32.8576 58.192 31.9114C58.192 30.9699 58.0137 30.0238 57.6522 29.1338L57.6475 29.1478Z" fill="#FFC300"/>
<path d="M9.73994 33.1997C9.43952 33.4994 9.09686 33.7196 8.73072 33.8695C8.36458 34.0194 7.97497 34.0943 7.58067 34.0943C7.18637 34.0943 6.79676 34.0194 6.43062 33.8695C6.06448 33.7196 5.72651 33.5041 5.42609 33.1997V33.195C5.36507 33.1341 5.31343 33.0732 5.26649 33.017C5.05056 32.764 4.88158 32.4877 4.76422 32.1973C4.61871 31.8366 4.5436 31.4525 4.5436 31.0637V31.0544C4.5436 30.7312 4.59993 30.408 4.69851 30.1035C4.71728 30.0426 4.74075 29.977 4.76892 29.9114C4.80178 29.8271 4.83933 29.7475 4.88158 29.6679L4.89096 29.6445C5.03179 29.3775 5.21016 29.1292 5.43548 28.9044C5.7359 28.6046 6.07857 28.3844 6.44001 28.2345C6.80615 28.0847 7.19576 28.0097 7.59006 28.0097C7.98436 28.0097 8.37397 28.0847 8.74011 28.2345C9.10624 28.3844 9.44422 28.5999 9.74464 28.9044L10.2657 29.4243H10.2704L10.2938 29.4571C10.3643 29.5367 10.4206 29.6023 10.491 29.6772C10.6224 29.8178 10.782 29.9864 10.9792 30.1925C11.6739 30.9092 12.824 32.0661 14.204 33.4432C15.5465 34.7829 17.1049 36.3286 18.6352 37.8463L21.6958 34.7641C19.7102 32.8015 17.6917 30.7967 16.1521 29.251C15.3681 28.4641 14.7063 27.7942 14.2416 27.3212C14.0491 27.1244 13.8942 26.9605 13.7815 26.8434L13.7628 26.8246L13.7534 26.7965L13.7299 26.7497L12.8193 25.841C12.1011 25.1243 11.2655 24.581 10.3736 24.2203C9.48177 23.8596 8.53826 23.6816 7.59006 23.6816C6.64655 23.6816 5.69835 23.8596 4.80647 24.2203C3.9146 24.581 3.07436 25.1243 2.36086 25.841C2.23881 25.9628 2.12146 26.0892 2.0088 26.2204C1.90084 26.3469 1.79287 26.478 1.6943 26.6092C1.2953 27.1338 0.976105 27.6959 0.736707 28.2861C0.365875 29.1667 0.1875 30.1082 0.1875 31.0497C0.1875 31.9912 0.365875 32.9374 0.727319 33.8273C0.990187 34.469 1.34694 35.0827 1.79287 35.6447C1.82573 35.6822 1.8539 35.7197 1.88676 35.7572C1.99003 35.8789 2.09799 36.0007 2.21065 36.1225C2.26228 36.174 2.30453 36.2256 2.35147 36.2677C3.06966 36.9844 3.90521 37.5277 4.79708 37.8884C5.68896 38.2491 6.63247 38.4271 7.58067 38.4271C8.52418 38.4271 9.47238 38.2491 10.3643 37.8884C11.2561 37.5277 12.0964 36.9844 12.8099 36.2677L13.4342 35.6447L14.3683 34.7126L11.2937 31.6445L10.3596 32.5767L9.73525 33.1997H9.73994Z" fill="#FFC300"/>
<path d="M25.5308 17.3745L15.4404 27.4434L18.514 30.5104L28.6044 20.4415L25.5308 17.3745Z" fill="#FFC300"/>
<path d="M31.7554 55.0976C31.7554 56.5122 30.6054 57.6598 29.1878 57.6598C27.7702 57.6598 26.6201 56.5122 26.6201 55.0976C26.6201 53.683 27.7702 52.5354 29.1878 52.5354C30.6054 52.5354 31.7554 53.683 31.7554 55.0976Z" fill="#FFC300"/>
<path d="M30.4972 60.3955C30.4972 61.1168 29.9105 61.7023 29.1876 61.7023C28.4647 61.7023 27.8779 61.1168 27.8779 60.3955C27.8779 59.6741 28.4647 59.0886 29.1876 59.0886C29.9105 59.0886 30.4972 59.6741 30.4972 60.3955Z" fill="#FFC300"/>
<path d="M29.1876 3.36688C29.9109 3.36688 30.4972 2.78178 30.4972 2.06003C30.4972 1.33827 29.9109 0.753174 29.1876 0.753174C28.4643 0.753174 27.8779 1.33827 27.8779 2.06003C27.8779 2.78178 28.4643 3.36688 29.1876 3.36688Z" fill="#FFC300"/>
<path d="M31.7554 7.87761C31.7554 9.2922 30.6054 10.4398 29.1878 10.4398C27.7702 10.4398 26.6201 9.2922 26.6201 7.87761C26.6201 6.46303 27.7702 5.31543 29.1878 5.31543C30.6054 5.31543 31.7554 6.46303 31.7554 7.87761Z" fill="#FFC300"/>
<path d="M29.1875 63.3931C26.662 63.3931 24.6201 65.4353 24.6201 67.9507H33.7595C33.7595 65.4306 31.7129 63.3931 29.1921 63.3931H29.1875Z" fill="#FFC300"/>
<path d="M26.5635 69.6465H24.6201V98.7533H26.5635V69.6465Z" fill="#FFC300"/>
<path d="M30.1592 69.6465H28.2158V98.7533H30.1592V69.6465Z" fill="#FFC300"/>
<path d="M33.7549 69.6465H31.8115V98.7533H33.7549V69.6465Z" fill="#FFC300"/>
</g>
<defs>
<clipPath id="clip0_2_4755">
<rect width="58" height="98" fill="white" transform="translate(0.1875 0.753174)"/>
</clipPath>
</defs>
</svg>
