<svg width="205" height="93" viewBox="0 0 205 93" fill="none" xmlns="http://www.w3.org/2000/svg">
<path d="M36.9076 32.7206C39.3737 34.6446 40.8087 37.1638 41.1063 40.2464C41.6166 45.5612 37.8324 49.239 32.7621 50.015C26.8307 50.9185 21.7923 48.1123 20.1234 41.9365C18.8373 37.1744 21.0801 32.1147 26.4693 29.6486C29.0417 28.4687 29.3074 26.8105 29.4988 24.7377C30.1578 17.7115 34.6754 13.3109 41.7122 12.9495C43.4236 12.8644 45.1456 12.9176 46.8463 12.7262C47.3885 12.6625 48.1113 12.1416 48.3451 11.6527C51.4596 4.97725 56.8382 1.7671 63.9919 0.927355C69.5406 0.278948 74.7279 1.16121 79.6388 3.78673C79.8088 3.88239 80.0002 3.98869 80.1171 4.1375C81.871 6.39099 84.1564 5.88076 86.4205 5.32802C93.4254 3.63791 99.0697 7.53899 101.174 14.4057C102.684 19.3485 101.802 23.4622 98.0493 26.9593C95.073 29.723 90.4491 29.8187 87.6004 27.2357C84.5603 24.472 84.1989 20.1138 86.7287 16.7017C87.2177 16.0427 87.6748 15.3624 88.1744 14.6396C83.9225 15.3092 80.4998 21.0174 82.6576 26.1727C85.4213 32.7737 94.0419 34.3894 99.9839 30.5947C103.874 28.1073 105.373 24.0787 106.266 19.8375C106.712 17.6903 106.617 15.4368 106.957 13.2577C107.031 12.8219 107.977 12.2373 108.551 12.2054C112.92 11.9184 116.343 13.6935 118.915 17.212C131.118 13.9805 135.816 17.7966 135.891 30.7754C138.176 31.7958 140.451 32.6037 142.502 33.8048C144.745 35.1123 145.819 37.302 145.861 39.9381C145.883 41.0011 145.776 42.0747 145.883 43.127C146.404 48.7076 141.599 52.5767 136.986 53.374C133.531 53.9586 130.555 53.5759 128.131 50.9504C126.058 48.7076 125.952 43.8923 127.834 41.5644C129.97 38.9283 134.934 39.3535 137.379 42.3829C137.74 42.84 138.091 43.3077 138.495 43.8286C140.228 37.759 134.094 35.1867 129.524 36.3347C124.751 37.5358 121.201 42.2128 121.509 46.9962C121.807 51.5669 126.112 56.3928 130.704 56.9668C133.956 57.3813 136.869 56.7329 139.558 55.1279C144.299 52.2897 148.923 49.239 153.621 46.3372C157.086 44.19 160.87 42.7762 164.92 42.6168C169.342 42.4361 173.36 44.0305 176.73 46.858C179.44 49.1327 181.938 51.6626 184.468 54.1499C187.987 57.6152 192.334 59.6029 196.852 61.3037C197.309 61.4738 197.755 61.6863 198.159 62.0052C193.684 61.8777 189.443 60.7403 185.531 58.6994C181.875 56.7967 178.399 54.5113 174.859 52.3748C168.194 48.3461 161.328 48.3462 154.652 52.0027C149.135 55.0322 143.906 58.5931 138.591 61.984C133.265 65.3855 127.802 68.3192 121.222 68.0854C116.194 67.9047 111.655 66.1189 107.52 63.8973C108.743 61.1336 110.263 58.5825 111.007 55.8294C113.239 47.5277 108.987 39.8531 100.909 36.9193C96.6781 35.378 92.3837 35.5268 88.0256 36.0051C87.3878 36.0796 86.4843 35.7075 86.0378 35.2292C82.9977 31.9659 79.49 29.5636 75.0149 28.7664C67.2659 27.3845 58.7303 30.9986 55.7008 38.7263C55.4138 39.4598 54.6591 40.2145 53.9363 40.5334C48.9935 42.7018 46.1129 46.3903 45.5176 51.7476C45.018 56.1802 49.3018 61.7289 53.7875 62.4623C55.467 62.7387 57.1996 62.6111 58.8897 62.8237C59.3893 62.8875 59.9421 63.3552 60.2822 63.791C62.9077 67.0756 65.2675 70.6152 68.1375 73.6659C72.3468 78.141 77.9593 80.4476 83.7631 82.0102C89.3543 83.509 95.0836 84.5082 101.015 85.7731C99.5056 86.0388 98.1237 86.2621 96.7419 86.5278C84.6772 88.8663 73.7181 86.379 64.0238 78.8107C58.9748 74.8671 54.2233 70.5196 49.0467 66.7673C41.7441 61.4631 29.4882 61.293 22.1431 66.948C19.0605 69.3184 16.9346 73.8573 19.2837 77.7902C19.5707 76.6422 19.7195 75.5155 20.1341 74.495C21.0163 72.2841 22.5683 70.8066 25.0662 70.4877C28.3827 70.0731 31.2208 70.7747 33.0916 73.7935C36.4293 79.1934 35.4726 88.3136 26.2142 91.0879C20.2723 92.8737 14.4153 92.2359 9.12177 88.9726C2.58454 84.944 0.533021 78.6193 2.82902 70.7641C2.86091 70.6365 2.94595 70.5196 2.9991 70.4026C4.21088 68.0641 4.29591 66.172 2.1381 64.0036C-0.795684 61.0698 -0.349239 57.2113 1.31961 53.8204C2.93532 50.5571 5.8691 48.665 9.58947 48.1017C13.3205 47.5383 16.605 48.7182 19.7301 50.5359C25.8209 54.0862 31.933 54.1606 38.13 50.8122C41.7229 48.867 45.4113 42.0959 43.9232 37.9504C42.7008 34.5489 40.0646 33.3903 36.8545 32.7206H36.9076Z" fill="url(#paint0_linear_17_4275)"/>
<path d="M204.654 66.374C201.529 66.0551 198.382 65.885 195.289 65.3961C189.028 64.3969 183.852 60.9422 178.548 57.7852C174.88 55.5955 171.149 53.5759 166.706 53.2889C160.998 52.9062 155.906 54.6814 151.187 57.5833C146.17 60.6552 141.323 64.0142 136.358 67.1925C127.887 72.6136 118.99 73.921 109.838 69.2121C105.575 67.0224 101.079 66.3527 96.4867 66.1508C91.2995 65.9275 87.9618 63.3339 87.3559 58.6994C86.5905 52.8425 89.8751 47.2406 96.508 48.0698C99.8351 48.4843 101.727 50.6421 101.344 53.9905C100.632 53.5759 99.9732 53.1401 99.2823 52.7787C95.8064 50.9291 92.0329 53.2145 91.8097 57.1368C91.5439 61.7926 96.5186 64.1949 100.441 63.0575C104.608 61.8458 106.468 58.6888 107.042 54.7771C107.68 50.3445 106.596 46.1989 102.822 43.4565C97.5284 39.6086 91.5333 38.8326 85.2299 40.4164C82.243 34.1449 72.0386 31.1474 65.3525 35.1866C62.3231 37.0149 60.346 39.6192 58.7834 42.6486C58.2838 43.6053 57.7842 44.0624 56.5724 44.1899C51.6084 44.7002 48.4408 50.015 50.5136 54.4263C52.1399 57.9022 55.8603 59.4647 60.0696 58.71C61.7597 58.4124 62.4294 58.7951 63.0353 60.2301C64.651 64.078 67.0533 67.4263 70.5398 69.733C74.3027 72.2203 78.1612 74.6438 82.2324 76.5465C89.1735 79.778 96.6462 81.3937 104.257 82.0208C108.583 82.3822 112.973 82.2121 117.331 82.0527C123.188 81.8507 128.78 80.4051 133.744 77.2162C140.6 72.8049 147.222 68.0322 154.152 63.7591C159.382 60.5383 165.207 58.9332 171.309 61.006C175.018 62.2603 178.558 64.0461 182.077 65.7894C186.785 68.1172 191.75 68.957 196.884 68.4361C199.552 68.1704 202.145 67.2456 204.781 66.6185C204.75 66.5441 204.707 66.459 204.675 66.3846L204.654 66.374Z" fill="url(#paint1_linear_17_4275)"/>
<defs>
<linearGradient id="paint0_linear_17_4275" x1="99.1229" y1="92.0446" x2="99.1229" y2="0.725396" gradientUnits="userSpaceOnUse">
<stop stop-color="#DABF67"/>
<stop offset="0.34" stop-color="#A77C35"/>
<stop offset="0.42" stop-color="#B28D44"/>
<stop offset="0.69" stop-color="#DAC576"/>
<stop offset="0.89" stop-color="#F2E896"/>
<stop offset="1" stop-color="#FCF6A2"/>
</linearGradient>
<linearGradient id="paint1_linear_17_4275" x1="127.313" y1="82.2228" x2="127.313" y2="33.3371" gradientUnits="userSpaceOnUse">
<stop stop-color="#DABF67"/>
<stop offset="0.34" stop-color="#A77C35"/>
<stop offset="0.42" stop-color="#B28D44"/>
<stop offset="0.69" stop-color="#DAC576"/>
<stop offset="0.89" stop-color="#F2E896"/>
<stop offset="1" stop-color="#FCF6A2"/>
</linearGradient>
</defs>
</svg>
