<svg width="206" height="93" viewBox="0 0 206 93" fill="none" xmlns="http://www.w3.org/2000/svg">
<path d="M168.281 32.7206C165.815 34.6446 164.38 37.1638 164.082 40.2464C163.572 45.5612 167.356 49.239 172.427 50.015C178.358 50.9185 183.396 48.1123 185.065 41.9365C186.351 37.1744 184.109 32.1147 178.719 29.6486C176.147 28.4687 175.881 26.8105 175.69 24.7377C175.031 17.7115 170.513 13.3109 163.476 12.9495C161.765 12.8644 160.043 12.9176 158.342 12.7262C157.8 12.6625 157.077 12.1416 156.844 11.6527C153.729 4.97725 148.35 1.7671 141.197 0.927355C135.648 0.278948 130.461 1.16121 125.55 3.78673C125.38 3.88239 125.188 3.98869 125.072 4.1375C123.318 6.39099 121.032 5.88076 118.768 5.32802C111.763 3.63791 106.119 7.53899 104.014 14.4057C102.505 19.3485 103.387 23.4622 107.139 26.9593C110.116 29.723 114.74 29.8187 117.588 27.2357C120.628 24.472 120.99 20.1138 118.46 16.7017C117.971 16.0427 117.514 15.3624 117.014 14.6396C121.266 15.3092 124.689 21.0174 122.531 26.1727C119.767 32.7737 111.147 34.3894 105.205 30.5947C101.314 28.1073 99.8155 24.0787 98.9227 19.8375C98.4762 17.6903 98.5719 15.4368 98.2317 13.2577C98.1573 12.8219 97.2113 12.2373 96.6373 12.2054C92.2685 11.9184 88.8458 13.6935 86.2734 17.212C74.0706 13.9805 69.3723 17.7966 69.2979 30.7754C67.0125 31.7958 64.7377 32.6037 62.6862 33.8048C60.4434 35.1123 59.3698 37.302 59.3273 39.9381C59.306 41.0011 59.4123 42.0747 59.306 43.127C58.7851 48.7076 63.5897 52.5767 68.203 53.374C71.6576 53.9586 74.6339 53.5759 77.0575 50.9504C79.1303 48.7076 79.2366 43.8923 77.3551 41.5644C75.2186 38.9283 70.2545 39.3535 67.8097 42.3829C67.4483 42.84 67.0975 43.3077 66.6936 43.8286C64.961 37.759 71.0943 35.1867 75.665 36.3347C80.4377 37.5358 83.988 42.2128 83.6798 46.9962C83.3821 51.5669 79.0771 56.3928 74.4851 56.9668C71.2325 57.3813 68.3199 56.7329 65.6306 55.1279C60.8898 52.2897 56.2659 49.239 51.5676 46.3372C48.1024 44.19 44.3182 42.7762 40.2683 42.6168C35.8464 42.4361 31.8284 44.0305 28.4588 46.858C25.7482 49.1327 23.2503 51.6626 20.7204 54.1499C17.202 57.6152 12.8545 59.6029 8.33688 61.3037C7.87981 61.4738 7.43338 61.6863 7.02945 62.0052C11.5045 61.8777 15.7457 60.7403 19.6574 58.6994C23.314 56.7967 26.7899 54.5113 30.3296 52.3748C36.9944 48.3461 43.8611 48.3462 50.5365 52.0027C56.0533 55.0322 61.2831 58.5931 66.5979 61.984C71.9234 65.3855 77.387 68.3192 83.9668 68.0854C88.9946 67.9047 93.5334 66.1189 97.6684 63.8973C96.446 61.1336 94.9259 58.5825 94.1818 55.8294C91.9496 47.5277 96.2015 39.8531 104.28 36.9193C108.511 35.378 112.805 35.5268 117.163 36.0051C117.801 36.0796 118.704 35.7075 119.151 35.2292C122.191 31.9659 125.699 29.5636 130.174 28.7664C137.923 27.3845 146.458 30.9986 149.488 38.7263C149.775 39.4598 150.53 40.2145 151.252 40.5334C156.195 42.7018 159.076 46.3903 159.671 51.7476C160.171 56.1802 155.887 61.7289 151.401 62.4623C149.722 62.7387 147.989 62.6111 146.299 62.8237C145.799 62.8875 145.247 63.3552 144.906 63.791C142.281 67.0756 139.921 70.6152 137.051 73.6659C132.842 78.141 127.229 80.4476 121.426 82.0102C115.834 83.509 110.105 84.5082 104.174 85.7731C105.683 86.0388 107.065 86.2621 108.447 86.5278C120.511 88.8663 131.471 86.379 141.165 78.8107C146.214 74.8671 150.965 70.5196 156.142 66.7673C163.445 61.4631 175.701 61.293 183.046 66.948C186.128 69.3184 188.254 73.8573 185.905 77.7902C185.618 76.6422 185.469 75.5155 185.055 74.495C184.172 72.2841 182.62 70.8066 180.122 70.4877C176.806 70.0731 173.968 70.7747 172.097 73.7935C168.759 79.1934 169.716 88.3136 178.974 91.0879C184.916 92.8737 190.773 92.2359 196.067 88.9726C202.604 84.944 204.656 78.6193 202.36 70.7641C202.328 70.6365 202.243 70.5196 202.19 70.4026C200.978 68.0641 200.893 66.172 203.051 64.0036C205.984 61.0698 205.538 57.2113 203.869 53.8204C202.253 50.5571 199.32 48.665 195.599 48.1017C191.868 47.5383 188.584 48.7182 185.459 50.5359C179.368 54.0862 173.256 54.1606 167.059 50.8122C163.466 48.867 159.777 42.0959 161.265 37.9504C162.488 34.5489 165.124 33.3903 168.334 32.7206H168.281Z" fill="url(#paint0_linear_17_4278)"/>
<path d="M0.534714 66.374C3.65984 66.0551 6.8062 65.885 9.89943 65.3961C16.1603 64.3969 21.3369 60.9422 26.6411 57.7852C30.3083 55.5955 34.0393 53.5759 38.4825 53.2889C44.1906 52.9062 49.2822 54.6814 54.0018 57.5833C59.019 60.6552 63.8661 64.0142 68.8301 67.1925C77.3019 72.6136 86.1989 73.921 95.3511 69.2121C99.6135 67.0224 104.11 66.3527 108.702 66.1508C113.889 65.9275 117.227 63.3339 117.833 58.6994C118.598 52.8425 115.314 47.2406 108.681 48.0698C105.354 48.4843 103.461 50.6421 103.844 53.9905C104.556 53.5759 105.215 53.1401 105.906 52.7787C109.382 50.9291 113.156 53.2145 113.379 57.1368C113.645 61.7926 108.67 64.1949 104.748 63.0575C100.581 61.8458 98.7206 58.6888 98.1466 54.7771C97.5089 50.3445 98.5931 46.1989 102.367 43.4565C107.66 39.6086 113.655 38.8326 119.959 40.4164C122.946 34.1449 133.15 31.1474 139.836 35.1866C142.866 37.0149 144.843 39.6192 146.405 42.6486C146.905 43.6053 147.404 44.0624 148.616 44.1899C153.58 44.7002 156.748 50.015 154.675 54.4263C153.049 57.9022 149.328 59.4647 145.119 58.71C143.429 58.4124 142.759 58.7951 142.153 60.2301C140.538 64.078 138.135 67.4263 134.649 69.733C130.886 72.2203 127.027 74.6438 122.956 76.5465C116.015 79.778 108.542 81.3937 100.932 82.0208C96.6054 82.3822 92.2153 82.2121 87.8572 82.0527C82.0002 81.8507 76.409 80.4051 71.445 77.2162C64.5889 72.8049 57.9666 68.0322 51.0361 63.7591C45.8063 60.5383 39.9813 58.9332 33.8799 61.006C30.1701 62.2603 26.6305 64.0461 23.1121 65.7894C18.4031 68.1172 13.4391 68.957 8.30498 68.4361C5.63695 68.1704 3.0433 67.2456 0.40715 66.6185C0.439041 66.5441 0.481567 66.459 0.513458 66.3846L0.534714 66.374Z" fill="url(#paint1_linear_17_4278)"/>
<defs>
<linearGradient id="paint0_linear_17_4278" x1="106.066" y1="92.0446" x2="106.066" y2="0.725396" gradientUnits="userSpaceOnUse">
<stop stop-color="#DABF67"/>
<stop offset="0.34" stop-color="#A77C35"/>
<stop offset="0.42" stop-color="#B28D44"/>
<stop offset="0.69" stop-color="#DAC576"/>
<stop offset="0.89" stop-color="#F2E896"/>
<stop offset="1" stop-color="#FCF6A2"/>
</linearGradient>
<linearGradient id="paint1_linear_17_4278" x1="77.8759" y1="82.2228" x2="77.8759" y2="33.3371" gradientUnits="userSpaceOnUse">
<stop stop-color="#DABF67"/>
<stop offset="0.34" stop-color="#A77C35"/>
<stop offset="0.42" stop-color="#B28D44"/>
<stop offset="0.69" stop-color="#DAC576"/>
<stop offset="0.89" stop-color="#F2E896"/>
<stop offset="1" stop-color="#FCF6A2"/>
</linearGradient>
</defs>
</svg>
