<svg width="1179" height="52" viewBox="20 0 1139 52" fill="none" xmlns="http://www.w3.org/2000/svg">
<mask id="path-1-inside-1_41_50" fill="white">
<path d="M1149.48 0C1150.86 0.000499502 1151.94 1.2242 1152.29 2.55566C1153.08 5.56073 1155.79 9.5524 1162.67 11.9229C1163.65 12.2602 1164.35 13.1607 1164.35 14.1963V37.8037C1164.35 38.8392 1163.65 39.7388 1162.67 40.0762C1155.79 42.4467 1153.08 46.4392 1152.29 49.4443C1151.94 50.7758 1150.86 51.9995 1149.48 52H29.0579C27.6815 51.9997 26.5911 50.7759 26.2425 49.4443C25.4557 46.4392 22.7498 42.4467 15.8646 40.0762C14.8854 39.7389 14.1879 38.8393 14.1878 37.8037V14.1963C14.1878 13.1606 14.8854 12.2602 15.8646 11.9229C22.7494 9.55243 25.4556 5.56068 26.2425 2.55566C26.5911 1.22408 27.6815 0.000284854 29.0579 0H1149.48Z"/>
</mask>
<path d="M1149.48 0C1150.86 0.000499502 1151.94 1.2242 1152.29 2.55566C1153.08 5.56073 1155.79 9.5524 1162.67 11.9229C1163.65 12.2602 1164.35 13.1607 1164.35 14.1963V37.8037C1164.35 38.8392 1163.65 39.7388 1162.67 40.0762C1155.79 42.4467 1153.08 46.4392 1152.29 49.4443C1151.94 50.7758 1150.86 51.9995 1149.48 52H29.0579C27.6815 51.9997 26.5911 50.7759 26.2425 49.4443C25.4557 46.4392 22.7498 42.4467 15.8646 40.0762C14.8854 39.7389 14.1879 38.8393 14.1878 37.8037V14.1963C14.1878 13.1606 14.8854 12.2602 15.8646 11.9229C22.7494 9.55243 25.4556 5.56068 26.2425 2.55566C26.5911 1.22408 27.6815 0.000284854 29.0579 0H1149.48Z" fill="#7B0100"/>
<path d="M1149.48 0L1149.48 -1H1149.48V0ZM1152.29 2.55566L1151.33 2.80891V2.80896L1152.29 2.55566ZM1162.67 11.9229L1163 10.9774L1163 10.9773L1162.67 11.9229ZM1164.35 37.8037L1165.35 37.8038V37.8037H1164.35ZM1162.67 40.0762L1163 41.0217L1163 41.0216L1162.67 40.0762ZM1152.29 49.4443L1151.33 49.1911L1152.29 49.4443ZM1149.48 52V53H1149.48L1149.48 52ZM29.0579 52L29.0577 53H29.0579V52ZM26.2425 49.4443L27.2099 49.1911L27.2099 49.1911L26.2425 49.4443ZM15.8646 40.0762L15.5389 41.0216L15.539 41.0217L15.8646 40.0762ZM14.1878 37.8037H13.1878V37.8038L14.1878 37.8037ZM15.8646 11.9229L15.539 10.9773L15.5389 10.9774L15.8646 11.9229ZM26.2425 2.55566L27.2099 2.80898L27.2099 2.80891L26.2425 2.55566ZM29.0579 0V-1H29.0577L29.0579 0ZM1149.48 0L1149.48 1C1150.23 1.00027 1151.04 1.72267 1151.33 2.80891L1152.29 2.55566L1153.26 2.30242C1152.85 0.725737 1151.48 -0.999272 1149.48 -1L1149.48 0ZM1152.29 2.55566L1151.33 2.80896C1152.21 6.17668 1155.19 10.4029 1162.35 12.8684L1162.67 11.9229L1163 10.9773C1156.39 8.70191 1153.95 4.94477 1153.26 2.30236L1152.29 2.55566ZM1162.67 11.9229L1162.35 12.8683C1162.96 13.079 1163.35 13.6241 1163.35 14.1963H1164.35H1165.35C1165.35 12.6972 1164.34 11.4414 1163 10.9774L1162.67 11.9229ZM1164.35 14.1963H1163.35V37.8037H1164.35H1165.35V14.1963H1164.35ZM1164.35 37.8037L1163.35 37.8036C1163.35 38.3752 1162.96 38.9199 1162.35 39.1308L1162.67 40.0762L1163 41.0216C1164.34 40.5577 1165.35 39.3031 1165.35 37.8038L1164.35 37.8037ZM1162.67 40.0762L1162.35 39.1306C1155.19 41.5963 1152.21 45.8234 1151.33 49.1911L1152.29 49.4443L1153.26 49.6976C1153.95 47.0551 1156.39 43.2972 1163 41.0217L1162.67 40.0762ZM1152.29 49.4443L1151.33 49.1911C1151.04 50.2773 1150.23 50.9997 1149.48 51L1149.48 52L1149.48 53C1151.48 52.9993 1152.85 51.2742 1153.26 49.6976L1152.29 49.4443ZM1149.48 52V51H29.0579V52V53H1149.48V52ZM29.0579 52L29.0581 51C28.3102 50.9998 27.4942 50.2772 27.2099 49.1911L26.2425 49.4443L25.2751 49.6976C25.6879 51.2747 27.0529 52.9996 29.0577 53L29.0579 52ZM26.2425 49.4443L27.2099 49.1911C26.3282 45.8235 23.3516 41.5963 16.1901 39.1306L15.8646 40.0762L15.539 41.0217C22.148 43.2971 24.5832 47.055 25.2751 49.6976L26.2425 49.4443ZM15.8646 40.0762L16.1903 39.1307C15.5784 38.9199 15.1879 38.3755 15.1878 37.8036L14.1878 37.8037L13.1878 37.8038C13.188 39.3031 14.1924 40.5578 15.5389 41.0216L15.8646 40.0762ZM14.1878 37.8037H15.1878V14.1963H14.1878H13.1878V37.8037H14.1878ZM14.1878 14.1963H15.1878C15.1878 13.624 15.5787 13.079 16.1903 12.8683L15.8646 11.9229L15.5389 10.9774C14.192 11.4414 13.1878 12.6972 13.1878 14.1963H14.1878ZM15.8646 11.9229L16.1901 12.8684C23.3511 10.4029 26.3281 6.17654 27.2099 2.80898L26.2425 2.55566L25.2751 2.30235C24.5832 4.94483 22.1477 8.70197 15.539 10.9773L15.8646 11.9229ZM26.2425 2.55566L27.2099 2.80891C27.4942 1.72284 28.3102 1.00015 29.0581 1L29.0579 0L29.0577 -1C27.0529 -0.999585 25.6879 0.725326 25.2751 2.30242L26.2425 2.55566ZM29.0579 0V1H1149.48V0V-1H29.0579V0Z" fill="#FFC300" mask="url(#path-1-inside-1_41_50)"/>
<mask id="mask0_41_50" style="mask-type:alpha" maskUnits="userSpaceOnUse" x="1147" y="14" width="32" height="24">
<g clip-path="url(#clip0_41_50)">
<path d="M1165.37 29.6195L1167.03 27.9761L1161.35 22.3485L1159.69 23.9918L1165.37 29.6195Z" fill="#8D0101"/>
<path d="M1170.47 31.8254C1170.27 31.3485 1169.98 30.8993 1169.59 30.5178L1169.32 30.2467L1167.66 31.8907L1167.93 32.1617C1168.1 32.3224 1168.22 32.5056 1168.3 32.6988C1168.38 32.8921 1168.42 33.0979 1168.42 33.3062L1168.42 33.3137C1168.42 33.3163 1168.42 33.3188 1168.42 33.3213C1168.42 33.5271 1168.38 33.7329 1168.3 33.9261C1168.22 34.1219 1168.1 34.3026 1167.93 34.4632C1167.77 34.6239 1167.59 34.7418 1167.39 34.8222C1167.2 34.9025 1166.99 34.9426 1166.77 34.9426C1166.56 34.9426 1166.35 34.9025 1166.15 34.8247C1165.95 34.7444 1165.77 34.6289 1165.61 34.4658L1165.27 34.1319L1161.35 30.2467L1159.69 31.8907L1163.61 35.7759L1163.94 36.0972L1163.95 36.1097C1164.34 36.4937 1164.79 36.7848 1165.27 36.9781C1165.75 37.1714 1166.26 37.2667 1166.77 37.2667C1167.28 37.2667 1167.79 37.1714 1168.27 36.9781C1168.76 36.7848 1169.21 36.4937 1169.59 36.1097C1169.98 35.7257 1170.27 35.2764 1170.47 34.8021C1170.66 34.3252 1170.76 33.8207 1170.76 33.3137C1170.76 32.8093 1170.66 32.3023 1170.47 31.8254Z" fill="#8D0101"/>
<path d="M1159.28 28.412L1159.22 28.4748C1159.03 28.6605 1158.86 28.8337 1158.7 28.9943C1158.34 29.3482 1158.04 29.6368 1157.83 29.8326C1157.76 29.9004 1157.71 29.9556 1157.66 29.9982L1157.65 30.0083L1157.63 30.0133L1157.6 30.0259L1157.11 30.5128C1156.73 30.8968 1156.43 31.346 1156.24 31.8204C1156.04 32.2973 1155.95 32.8017 1155.95 33.3087C1155.95 33.8132 1156.04 34.3202 1156.24 34.7971C1156.43 35.2739 1156.73 35.7232 1157.11 36.1047C1157.5 36.4887 1157.95 36.7798 1158.43 36.9731C1158.91 37.1714 1159.42 37.2667 1159.93 37.2667C1160.44 37.2667 1160.95 37.1714 1161.44 36.9781C1161.92 36.7848 1162.37 36.4937 1162.76 36.1097L1163.03 35.8386L1161.37 34.1947L1161.1 34.4658C1160.93 34.6264 1160.75 34.7444 1160.55 34.8247C1160.36 34.905 1160.15 34.9451 1159.93 34.9451C1159.72 34.9451 1159.51 34.905 1159.31 34.8272C1159.12 34.7469 1158.93 34.6314 1158.77 34.4683C1158.61 34.3076 1158.49 34.1244 1158.41 33.9287C1158.33 33.7329 1158.29 33.5246 1158.29 33.3137C1158.29 33.1029 1158.33 32.8946 1158.41 32.6988C1158.49 32.5031 1158.6 32.3224 1158.77 32.1617L1159.05 31.8856L1159.05 31.8856C1159.09 31.853 1159.12 31.8279 1159.15 31.8028C1159.21 31.7426 1159.29 31.6748 1159.38 31.587C1159.54 31.4364 1159.74 31.2381 1159.99 30.9921C1160.72 30.2743 1161.83 29.1725 1163.08 27.9276L1161.41 26.2912L1161.38 26.3188L1161.37 26.3063C1161.06 26.615 1160.55 27.127 1160.1 27.5788C1159.73 27.9502 1159.41 28.279 1159.28 28.412L1159.28 28.412Z" fill="#8D0101"/>
<path d="M1157.11 21.4848L1157.39 21.7559L1159.05 20.112L1158.77 19.8409C1158.61 19.6803 1158.49 19.497 1158.41 19.3038C1158.33 19.108 1158.29 18.8997 1158.29 18.6889C1158.29 18.4781 1158.33 18.2697 1158.41 18.074C1158.49 17.8782 1158.6 17.6975 1158.77 17.5369C1158.93 17.3762 1159.12 17.2583 1159.31 17.178C1159.51 17.0976 1159.72 17.0575 1159.93 17.0575C1160.14 17.0575 1160.35 17.0976 1160.55 17.178C1160.75 17.2583 1160.93 17.3737 1161.09 17.5369L1161.43 17.8707L1165.35 21.7559L1167.01 20.112L1163.09 16.2267L1162.75 15.8929C1162.37 15.5089 1161.91 15.2178 1161.43 15.0245C1160.95 14.8313 1160.44 14.7359 1159.93 14.7359C1159.42 14.7359 1158.91 14.8313 1158.43 15.0245C1157.95 15.2178 1157.5 15.5089 1157.11 15.8929C1156.72 16.2769 1156.43 16.7262 1156.23 17.2005C1156.04 17.6774 1155.94 18.1819 1155.94 18.6889C1155.94 19.1934 1156.04 19.7003 1156.23 20.1772C1156.43 20.6541 1156.72 21.1033 1157.11 21.4848L1157.11 21.4848Z" fill="#8D0101"/>
<path d="M1157.6 25.4765L1163.04 20.0813L1161.38 18.438L1155.94 23.8331L1157.6 25.4765Z" fill="#8D0101"/>
<path d="M1163.63 24.0725L1165.29 25.7089L1165.32 25.6813L1165.33 25.6938C1165.64 25.3851 1166.15 24.8731 1166.6 24.4213C1166.97 24.0474 1167.3 23.7186 1167.43 23.5881L1167.49 23.5253C1167.67 23.3396 1167.85 23.1664 1168.01 23.0058C1168.37 22.6519 1168.67 22.3633 1168.87 22.1675C1168.95 22.0997 1169 22.0445 1169.05 22.0018L1169.06 21.9918L1169.07 21.9868L1169.1 21.9742L1169.6 21.4873C1169.98 21.1033 1170.28 20.6566 1170.47 20.1797C1170.67 19.7028 1170.76 19.1984 1170.76 18.6914C1170.76 18.1869 1170.67 17.6799 1170.47 17.203C1170.28 16.7262 1169.98 16.2769 1169.6 15.8954C1169.21 15.5114 1168.76 15.2203 1168.28 15.027C1167.8 14.8337 1167.29 14.7384 1166.77 14.7384C1166.27 14.7384 1165.75 14.8337 1165.27 15.027C1164.79 15.2203 1164.34 15.5114 1163.95 15.8954L1163.68 16.1665L1165.34 17.8104L1165.61 17.5394C1165.77 17.3787 1165.96 17.2608 1166.15 17.1804C1166.35 17.1001 1166.56 17.06 1166.77 17.06C1166.99 17.06 1167.2 17.1001 1167.4 17.1804C1167.59 17.2608 1167.78 17.3762 1167.94 17.5394C1168.1 17.7 1168.22 17.8832 1168.3 18.079C1168.38 18.2722 1168.42 18.478 1168.42 18.6863L1168.42 18.6914C1168.42 18.6939 1168.42 18.6964 1168.42 18.6989C1168.42 18.9047 1168.38 19.1105 1168.3 19.3038C1168.22 19.4995 1168.1 19.6802 1167.94 19.8409L1167.66 20.117L1167.66 20.117C1167.62 20.1496 1167.59 20.1747 1167.56 20.1998C1167.49 20.26 1167.42 20.3278 1167.33 20.4156C1167.17 20.5662 1166.96 20.7645 1166.71 21.0105C1165.98 21.7283 1164.88 22.8301 1163.63 24.075L1163.63 24.0725Z" fill="#8D0101"/>
<path d="M1148 27.2525C1148.19 27.7294 1148.49 28.1786 1148.87 28.5601C1149.26 28.9441 1149.71 29.2353 1150.19 29.4285C1150.67 29.6218 1151.18 29.7172 1151.7 29.7172C1152.2 29.7172 1152.72 29.6218 1153.2 29.4285C1153.68 29.2353 1154.13 28.9441 1154.52 28.5601L1154.85 28.2263L1155.36 27.7269L1153.7 26.0829L1153.19 26.5824L1152.86 26.9162C1152.7 27.0768 1152.51 27.1948 1152.32 27.2751C1152.12 27.3554 1151.91 27.3931 1151.7 27.3956C1151.49 27.3956 1151.27 27.3554 1151.07 27.2751C1150.88 27.1948 1150.7 27.0793 1150.53 26.9162C1150.45 26.8359 1150.38 26.7505 1150.32 26.6602C1150.26 26.5698 1150.21 26.477 1150.17 26.3791C1150.09 26.1934 1150.06 25.9951 1150.05 25.7968L1150.05 25.7667C1150.05 25.5559 1150.09 25.3475 1150.17 25.1518C1150.25 24.956 1150.37 24.7753 1150.53 24.6147C1150.7 24.454 1150.88 24.3361 1151.07 24.2558C1151.27 24.1755 1151.48 24.1378 1151.7 24.1378C1151.91 24.1378 1152.12 24.178 1152.32 24.2583C1152.51 24.3386 1152.7 24.454 1152.86 24.6172L1153.14 24.8958L1153.14 24.8958L1153.15 24.9133C1153.19 24.956 1153.22 24.9912 1153.26 25.0313C1153.33 25.1066 1153.42 25.197 1153.52 25.3074C1153.9 25.6914 1154.52 26.3113 1155.26 27.0492C1155.99 27.767 1156.83 28.5953 1157.65 29.4085L1159.31 27.757C1158.23 26.7054 1157.15 25.6312 1156.31 24.8029C1155.89 24.3813 1155.53 24.0224 1155.28 23.7689C1155.18 23.6634 1155.1 23.5756 1155.04 23.5129L1155.03 23.5028L1155.02 23.4878L1155.01 23.4627L1154.52 22.9758C1154.13 22.5917 1153.68 22.3006 1153.2 22.1073C1152.72 21.9141 1152.21 21.8187 1151.7 21.8187C1151.19 21.8187 1150.67 21.9141 1150.19 22.1073C1149.71 22.3006 1149.26 22.5917 1148.88 22.9732L1148.72 23.1765L1148.72 23.1414C1148.45 23.4351 1148.24 23.7613 1148.07 24.1052C1148.05 24.1629 1148.02 24.2231 1148 24.2834C1147.8 24.7602 1147.7 25.2647 1147.7 25.7717C1147.7 26.2762 1147.8 26.7832 1148 27.26L1148 27.2525Z" fill="#8D0101"/>
<path d="M1173.85 25.0814C1174.01 24.9208 1174.19 24.8029 1174.39 24.7225C1174.59 24.6422 1174.8 24.6021 1175.01 24.6021C1175.22 24.6021 1175.43 24.6422 1175.63 24.7225C1175.83 24.8029 1176.01 24.9183 1176.17 25.0814L1176.17 25.084C1176.21 25.1166 1176.23 25.1492 1176.26 25.1793C1176.38 25.3149 1176.47 25.4629 1176.53 25.6186C1176.61 25.8118 1176.65 26.0176 1176.65 26.2259L1176.65 26.231C1176.65 26.4041 1176.62 26.5773 1176.57 26.7405C1176.56 26.7731 1176.54 26.8082 1176.53 26.8434C1176.51 26.8885 1176.49 26.9312 1176.47 26.9739L1176.46 26.9864C1176.39 27.1295 1176.29 27.2625 1176.17 27.383C1176.01 27.5436 1175.82 27.6616 1175.63 27.7419C1175.43 27.8222 1175.22 27.8624 1175.01 27.8624C1174.79 27.8624 1174.58 27.8222 1174.39 27.7419C1174.19 27.6616 1174.01 27.5461 1173.84 27.383L1173.56 27.1044L1173.56 27.1044L1173.55 27.0868C1173.51 27.0441 1173.48 27.009 1173.44 26.9688C1173.37 26.8936 1173.28 26.8032 1173.18 26.6928C1172.8 26.3088 1172.18 25.6888 1171.44 24.9509C1170.71 24.2331 1169.87 23.4049 1169.05 22.5917L1167.4 24.2432C1168.47 25.2948 1169.56 26.369 1170.39 27.1972C1170.81 27.6189 1171.17 27.9778 1171.42 28.2313C1171.52 28.3367 1171.6 28.4246 1171.67 28.4873L1171.68 28.4973L1171.68 28.5124L1171.69 28.5375L1172.18 29.0244C1172.57 29.4084 1173.02 29.6996 1173.5 29.8928C1173.99 30.0861 1174.49 30.1814 1175.01 30.1814C1175.51 30.1814 1176.03 30.0861 1176.51 29.8928C1176.99 29.6996 1177.44 29.4084 1177.83 29.0244C1177.89 28.9592 1177.96 28.8914 1178.02 28.8211C1178.08 28.7533 1178.13 28.6831 1178.19 28.6128C1178.4 28.3317 1178.57 28.0305 1178.7 27.7143C1178.9 27.2449 1179 26.7405 1179 26.2335C1179 25.729 1178.9 25.222 1178.71 24.7451C1178.57 24.4013 1178.37 24.0725 1178.13 23.7713C1178.12 23.7512 1178.1 23.7312 1178.08 23.7111C1178.03 23.6458 1177.97 23.5806 1177.91 23.5153C1177.88 23.4877 1177.86 23.4601 1177.83 23.4375C1177.44 23.0535 1176.99 22.7624 1176.51 22.5691C1176.03 22.3758 1175.52 22.2805 1175.01 22.2805C1174.5 22.2805 1173.99 22.3758 1173.51 22.5691C1173.03 22.7624 1172.57 23.0535 1172.19 23.4375L1171.85 23.7713L1171.35 24.2708L1173.01 25.9147L1173.51 25.4153L1173.85 25.0814L1173.85 25.0814Z" fill="#8D0101"/>
<path d="M1165.32 33.5612L1170.77 28.166L1169.11 26.5226L1163.67 31.9178L1165.32 33.5612Z" fill="#8D0101"/>
</g>
</mask>
<g mask="url(#mask0_41_50)">
<rect x="1163.35" y="47.7283" width="28.8227" height="40.2381" transform="rotate(-180 1163.35 47.7283)" fill="#B86300"/>
</g>
<mask id="mask1_41_50" style="mask-type:alpha" maskUnits="userSpaceOnUse" x="0" y="14" width="32" height="24">
<g clip-path="url(#clip1_41_50)">
<path d="M13.6295 29.6195L11.9711 27.9761L17.6499 22.3485L19.3082 23.9918L13.6295 29.6195Z" fill="#8D0101"/>
<path d="M8.53007 31.8254C8.72508 31.3485 9.01887 30.8993 9.40636 30.5178L9.67988 30.2467L11.3388 31.8907L11.0652 32.1617C10.9031 32.3224 10.7841 32.5056 10.7031 32.6988C10.6246 32.8921 10.584 33.0979 10.584 33.3062L10.584 33.3137C10.584 33.3163 10.584 33.3188 10.584 33.3213C10.584 33.5271 10.6246 33.7329 10.7031 33.9261C10.7841 34.1219 10.9006 34.3026 11.0652 34.4632C11.2273 34.6239 11.4122 34.7418 11.6072 34.8222C11.8048 34.9025 12.015 34.9426 12.2277 34.9426C12.4405 34.9426 12.6507 34.9025 12.8482 34.8247C13.0458 34.7444 13.2281 34.6289 13.3902 34.4658L13.727 34.1319L17.6476 30.2467L19.3064 31.8907L15.3859 35.7759L15.0617 36.0972L15.0491 36.1097C14.6616 36.4937 14.2108 36.7848 13.7296 36.9781C13.2484 37.1714 12.7393 37.2667 12.2277 37.2667C11.7187 37.2667 11.2071 37.1714 10.7259 36.9781C10.2447 36.7848 9.79132 36.4937 9.40636 36.1097C9.01887 35.7257 8.72508 35.2764 8.53007 34.8021C8.33506 34.3252 8.23881 33.8207 8.23881 33.3137C8.23881 32.8093 8.33506 32.3023 8.53007 31.8254Z" fill="#8D0101"/>
<path d="M19.7169 28.412L19.7802 28.4748C19.9651 28.6605 20.1424 28.8337 20.3045 28.9943C20.6641 29.3482 20.9579 29.6368 21.1656 29.8326C21.2365 29.9004 21.2947 29.9556 21.3403 29.9982L21.3504 30.0083L21.3656 30.0133L21.396 30.0259L21.8874 30.5128C22.2748 30.8968 22.5686 31.346 22.7636 31.8204C22.9587 32.2973 23.0549 32.8017 23.0549 33.3087C23.0549 33.8132 22.9587 34.3202 22.7636 34.7971C22.5686 35.2739 22.2748 35.7232 21.8874 36.1047C21.4999 36.4887 21.0465 36.7798 20.5678 36.9731C20.0866 37.1714 19.5751 37.2667 19.066 37.2667C18.5569 37.2667 18.0453 37.1714 17.5641 36.9781C17.0829 36.7848 16.6296 36.4937 16.2446 36.1097L15.9711 35.8386L17.63 34.1947L17.9035 34.4658C18.0656 34.6264 18.2505 34.7444 18.4455 34.8247C18.643 34.905 18.8533 34.9451 19.066 34.9451C19.2787 34.9451 19.4889 34.905 19.6865 34.8272C19.884 34.7469 20.0664 34.6314 20.2285 34.4683C20.3906 34.3076 20.5096 34.1244 20.5906 33.9287C20.6717 33.7329 20.7122 33.5246 20.7122 33.3137C20.7122 33.1029 20.6717 32.8946 20.5932 32.6988C20.5121 32.5031 20.3956 32.3224 20.231 32.1617L19.9524 31.8856L19.9499 31.8856C19.9144 31.853 19.884 31.8279 19.8536 31.8028C19.7853 31.7426 19.7118 31.6748 19.6206 31.587C19.4611 31.4364 19.2559 31.2381 19.0077 30.9921C18.2758 30.2743 17.1691 29.1725 15.923 27.9276L17.5895 26.2912L17.6173 26.3188L17.63 26.3063C17.939 26.615 18.448 27.127 18.8963 27.5788C19.2661 27.9502 19.5903 28.279 19.7194 28.412L19.7169 28.412Z" fill="#8D0101"/>
<path d="M21.8872 21.4848L21.6136 21.7559L19.9548 20.112L20.2283 19.8409C20.3904 19.6803 20.5094 19.497 20.5905 19.3038C20.6715 19.108 20.712 18.8997 20.712 18.6889C20.712 18.4781 20.6715 18.2697 20.593 18.074C20.5119 17.8782 20.3954 17.6975 20.2308 17.5369C20.0687 17.3762 19.8838 17.2583 19.6888 17.178C19.4913 17.0976 19.2811 17.0575 19.0683 17.0575C18.8556 17.0575 18.6454 17.0976 18.4478 17.178C18.2503 17.2583 18.0679 17.3737 17.9059 17.5369L17.569 17.8707L13.6485 21.7559L11.9896 20.112L15.9101 16.2267L16.247 15.8929C16.6345 15.5089 17.0853 15.2178 17.5665 15.0245C18.0477 14.8313 18.5567 14.7359 19.0683 14.7359C19.5774 14.7359 20.089 14.8313 20.5702 15.0245C21.0514 15.2178 21.5047 15.5089 21.8897 15.8929C22.2772 16.2769 22.571 16.7262 22.766 17.2005C22.961 17.6774 23.0572 18.1819 23.0572 18.6889C23.0572 19.1934 22.961 19.7003 22.766 20.1772C22.571 20.6541 22.2772 21.1033 21.8897 21.4848L21.8872 21.4848Z" fill="#8D0101"/>
<path d="M21.4041 25.4765L15.96 20.0813L17.6183 18.438L23.0625 23.8331L21.4041 25.4765Z" fill="#8D0101"/>
<path d="M15.3734 24.0725L13.7069 25.7089L13.679 25.6813L13.6664 25.6938C13.3574 25.3851 12.8483 24.8731 12.4 24.4213C12.0278 24.0474 11.7036 23.7186 11.5744 23.5881L11.5111 23.5253C11.3262 23.3396 11.1489 23.1664 10.9868 23.0058C10.6272 22.6519 10.3334 22.3633 10.1257 22.1675C10.0548 22.0997 9.99658 22.0445 9.95099 22.0018L9.94086 21.9918L9.92566 21.9868L9.89527 21.9742L9.40394 21.4873C9.01645 21.1033 8.72266 20.6566 8.52765 20.1797C8.33264 19.7028 8.2364 19.1984 8.2364 18.6914C8.2364 18.1869 8.33264 17.6799 8.52765 17.203C8.72266 16.7262 9.01645 16.2769 9.40394 15.8954C9.79143 15.5114 10.2422 15.2203 10.7234 15.027C11.2046 14.8337 11.7137 14.7384 12.2253 14.7384C12.7344 14.7384 13.2459 14.8337 13.7271 15.027C14.2084 15.2203 14.6617 15.5114 15.0467 15.8954L15.3202 16.1665L13.6613 17.8104L13.3878 17.5394C13.2257 17.3787 13.0408 17.2608 12.8458 17.1804C12.6482 17.1001 12.438 17.06 12.2253 17.06C12.0126 17.06 11.8023 17.1001 11.6048 17.1804C11.4073 17.2608 11.2249 17.3762 11.0628 17.5394C10.9007 17.7 10.7817 17.8832 10.7007 18.079C10.6221 18.2722 10.5816 18.478 10.5816 18.6863L10.5816 18.6914C10.5816 18.6939 10.5816 18.6964 10.5816 18.6989C10.5816 18.9047 10.6221 19.1105 10.7007 19.3038C10.7817 19.4995 10.8982 19.6802 11.0628 19.8409L11.3414 20.117L11.3439 20.117C11.3794 20.1496 11.4098 20.1747 11.4402 20.1998C11.5086 20.26 11.582 20.3278 11.6732 20.4156C11.8327 20.5662 12.0379 20.7645 12.2861 21.0105C13.018 21.7283 14.1248 22.8301 15.3708 24.075L15.3734 24.0725Z" fill="#8D0101"/>
<path d="M31.0021 27.2525C30.8071 27.7294 30.5133 28.1786 30.1258 28.5601C29.7383 28.9441 29.285 29.2353 28.8063 29.4285C28.3251 29.6218 27.8161 29.7172 27.3045 29.7172C26.7954 29.7172 26.2838 29.6218 25.8026 29.4285C25.3214 29.2353 24.8681 28.9441 24.4831 28.5601L24.1463 28.2263L23.6423 27.7269L25.3012 26.0829L25.8052 26.5824L26.142 26.9162C26.3041 27.0768 26.489 27.1948 26.684 27.2751C26.8815 27.3554 27.0917 27.3931 27.3045 27.3956C27.5147 27.3956 27.7274 27.3554 27.925 27.2751C28.1225 27.1948 28.3049 27.0793 28.467 26.9162C28.548 26.8359 28.6189 26.7505 28.6797 26.6602C28.7405 26.5698 28.7886 26.477 28.8291 26.3791C28.9051 26.1934 28.9431 25.9951 28.9482 25.7968L28.9482 25.7667C28.9482 25.5559 28.9076 25.3475 28.8291 25.1518C28.7481 24.956 28.6316 24.7753 28.467 24.6147C28.3049 24.454 28.12 24.3361 27.925 24.2558C27.7274 24.1755 27.5172 24.1378 27.3045 24.1378C27.0917 24.1378 26.8815 24.178 26.684 24.2583C26.4864 24.3386 26.3041 24.454 26.142 24.6172L25.8609 24.8958L25.8583 24.8958L25.8457 24.9133C25.8077 24.956 25.7773 24.9912 25.7393 25.0313C25.6684 25.1066 25.5823 25.197 25.4759 25.3074C25.1011 25.6914 24.4806 26.3113 23.736 27.0492C23.0117 27.767 22.1708 28.5953 21.3452 29.4085L19.6939 27.757C20.7652 26.7054 21.8543 25.6312 22.685 24.8029C23.1079 24.3813 23.465 24.0224 23.7157 23.7689C23.8196 23.6634 23.9032 23.5756 23.9639 23.5129L23.9741 23.5028L23.9791 23.4878L23.9918 23.4627L24.4831 22.9758C24.8706 22.5917 25.3214 22.3006 25.8026 22.1073C26.2838 21.9141 26.7929 21.8187 27.3045 21.8187C27.8135 21.8187 28.3251 21.9141 28.8063 22.1073C29.285 22.3006 29.7383 22.5917 30.1233 22.9732L30.2803 23.1765L30.2803 23.1414C30.5463 23.4351 30.7641 23.7613 30.9262 24.1052C30.954 24.1629 30.9793 24.2231 31.0047 24.2834C31.1997 24.7602 31.2959 25.2647 31.2959 25.7717C31.2959 26.2762 31.1997 26.7832 31.0047 27.26L31.0021 27.2525Z" fill="#8D0101"/>
<path d="M5.15404 25.0814C4.99195 24.9208 4.80707 24.8029 4.60953 24.7225C4.41198 24.6422 4.20177 24.6021 3.98903 24.6021C3.77629 24.6021 3.56608 24.6422 3.36853 24.7225C3.17099 24.8029 2.98864 24.9183 2.82655 25.0814L2.82655 25.084C2.79363 25.1166 2.76577 25.1492 2.74044 25.1793C2.62394 25.3149 2.53276 25.4629 2.46945 25.6186C2.39094 25.8118 2.35042 26.0176 2.35042 26.2259L2.35042 26.231C2.35042 26.4041 2.38081 26.5773 2.43399 26.7405C2.44412 26.7731 2.45679 26.8082 2.47198 26.8434C2.48971 26.8885 2.50997 26.9312 2.53277 26.9739L2.53783 26.9864C2.61381 27.1295 2.71005 27.2625 2.83162 27.383C2.9937 27.5436 3.17859 27.6616 3.3736 27.7419C3.57115 27.8222 3.78135 27.8624 3.9941 27.8624C4.20684 27.8624 4.41705 27.8222 4.61459 27.7419C4.81214 27.6616 4.99449 27.5461 5.15658 27.383L5.4377 27.1044L5.44023 27.1044L5.45289 27.0868C5.49088 27.0441 5.52128 27.009 5.55926 26.9688C5.63018 26.8936 5.71629 26.8032 5.82266 26.6928C6.19749 26.3088 6.81798 25.6888 7.56258 24.9509C8.28691 24.2331 9.12775 23.4049 9.95339 22.5917L11.6047 24.2432C10.5334 25.2948 9.44433 26.369 8.61362 27.1972C8.19067 27.6189 7.83357 27.9778 7.58284 28.2313C7.479 28.3367 7.39543 28.4246 7.33464 28.4873L7.32451 28.4973L7.31945 28.5124L7.30678 28.5375L6.81545 29.0244C6.42796 29.4084 5.97715 29.6996 5.49595 29.8928C5.01475 30.0861 4.50569 30.1814 3.9941 30.1814C3.48504 30.1814 2.97344 30.0861 2.49224 29.8928C2.01104 29.6996 1.5577 29.4084 1.17274 29.0244C1.10689 28.9592 1.04358 28.8914 0.982792 28.8211C0.924542 28.7533 0.866291 28.6831 0.813106 28.6128C0.597832 28.3317 0.425612 28.0305 0.296448 27.7143C0.0963695 27.2449 0.000129353 26.7405 0.000129301 26.2335C0.000129251 25.729 0.0963694 25.222 0.291382 24.7451C0.43321 24.4013 0.62569 24.0725 0.86629 23.7713C0.884019 23.7512 0.899215 23.7312 0.916943 23.7111C0.972661 23.6458 1.03091 23.5806 1.09169 23.5153C1.11955 23.4877 1.14235 23.4601 1.16767 23.4375C1.55517 23.0535 2.00598 22.7624 2.48718 22.5691C2.96838 22.3758 3.47744 22.2805 3.98903 22.2805C4.49809 22.2805 5.00968 22.3758 5.49088 22.5691C5.97208 22.7624 6.42543 23.0535 6.81039 23.4375L7.14723 23.7713L7.65122 24.2708L5.99234 25.9147L5.48835 25.4153L5.15151 25.0814L5.15404 25.0814Z" fill="#8D0101"/>
<path d="M13.6761 33.5612L8.23198 28.166L9.8903 26.5226L15.3345 31.9178L13.6761 33.5612Z" fill="#8D0101"/>
</g>
</mask>
<g mask="url(#mask1_41_50)">
<rect width="28.8227" height="40.2381" transform="matrix(1 -8.54329e-08 -8.9459e-08 -1 15.6477 47.7283)" fill="#B86300"/>
</g>
<defs>
<clipPath id="clip0_41_50">
<rect width="31.2932" height="22.5333" fill="white" transform="translate(1179 37.2667) rotate(-180)"/>
</clipPath>
<clipPath id="clip1_41_50">
<rect width="31.2932" height="22.5333" fill="white" transform="matrix(1 -7.57664e-08 -1.00872e-07 -1 0.0001297 37.2667)"/>
</clipPath>
</defs>
</svg>
